# FAMAS Magazine body | forward=-X (barrel), up=+Y | longest=4u
mtllib FAMAS_V2.mtl
g mag_body
v 0.701040 0.257543 -0.052891
v 0.701052 -0.104987 -0.053585
v 0.701052 -0.104987 0.000000
v 0.701040 0.257543 0.000000
v 0.686564 -0.266299 -0.053585
v 0.672599 -0.320532 -0.053585
v 0.672599 -0.320532 0.000000
v 0.686564 -0.266299 0.000000
v 0.656860 -0.372844 -0.053585
v 0.656860 -0.372844 0.000000
v 0.696241 -0.212259 -0.053585
v 0.696241 -0.212259 0.000000
v 0.700324 -0.162017 -0.053585
v 0.700324 -0.162017 0.000000
v 1.048513 -0.108046 -0.057611
v 1.056019 0.229999 -0.057611
v 1.064786 0.229999 -0.057611
v 1.064786 -0.108194 -0.057611
v 0.900449 -0.733519 -0.057611
v 0.915813 -0.738898 -0.057611
v 0.908535 -0.760130 -0.057611
v 0.893137 -0.754853 -0.057611
v 1.022721 -0.419162 -0.057611
v 1.003139 -0.484267 -0.057611
v 0.987638 -0.479286 -0.057611
v 1.007062 -0.414750 -0.057611
v 1.042736 -0.340194 -0.057611
v 1.026815 -0.336885 -0.057611
v 1.057144 -0.257668 -0.057611
v 1.040996 -0.255632 -0.057611
v 1.063479 -0.183033 -0.057611
v 1.047228 -0.182100 -0.057611
v 0.896753 -0.106715 -0.057611
v 0.879047 0.257543 -0.057611
v 0.896753 0.257543 -0.057611
v 0.860977 -0.373594 -0.057611
v 0.843168 -0.432797 -0.057611
v 0.769875 -0.409200 -0.057611
v 0.786865 -0.352715 -0.057611
v 0.802832 -0.290419 -0.057611
v 0.878194 -0.306056 -0.057611
v 0.890419 -0.236686 -0.057611
v 0.814033 -0.227077 -0.057611
v 0.818855 -0.168875 -0.057611
v 0.895707 -0.173333 -0.057611
v 0.819753 -0.106033 -0.057611
v 0.771433 0.257543 -0.057611
v 0.771433 -0.105612 -0.057611
v 0.705078 -0.105021 -0.057611
v 0.705760 0.257543 -0.057611
v 0.567715 -0.642327 -0.057611
v 0.575607 -0.619560 -0.057611
v 0.668039 -0.651982 -0.057611
v 0.674998 -0.680184 -0.057611
v 0.740342 -0.339614 -0.057611
v 0.723864 -0.394405 -0.057611
v 0.660692 -0.374072 -0.057611
v 0.676477 -0.321624 -0.057611
v 0.690510 -0.267118 -0.057611
v 0.755467 -0.280594 -0.057611
v 0.766066 -0.221050 -0.057611
v 0.700233 -0.212759 -0.057611
v 0.704350 -0.162256 -0.057611
v 0.770569 -0.166089 -0.057611
v 0.809018 0.257543 -0.046876
v 0.809018 -0.105953 -0.046876
v 0.782169 -0.105692 -0.046876
v 0.782169 0.257543 -0.046876
v 0.750679 -0.342514 -0.046876
v 0.776517 -0.349815 -0.046876
v 0.759652 -0.405913 -0.046876
v 0.734088 -0.397691 -0.046876
v 0.765986 -0.282777 -0.046876
v 0.792301 -0.288224 -0.046876
v 0.776721 -0.222414 -0.046876
v 0.803366 -0.225712 -0.046876
v 0.781304 -0.166703 -0.046876
v 0.808131 -0.168261 -0.046876
v 0.915551 0.257543 -0.053585
v 0.915551 -0.106886 -0.053585
v 0.902132 -0.106749 -0.053585
v 0.902121 0.257543 -0.053585
v 0.866151 -0.375038 -0.053585
v 0.879070 -0.378712 -0.053585
v 0.861068 -0.438551 -0.053585
v 0.848286 -0.434435 -0.053585
v 0.883459 -0.307147 -0.053585
v 0.896617 -0.309877 -0.053585
v 0.895741 -0.237380 -0.053585
v 0.909080 -0.239006 -0.053585
v 0.901075 -0.173640 -0.053585
v 0.914482 -0.174413 -0.053585
v 1.018286 0.257543 -0.057611
v 1.018286 -0.107784 -0.057611
v 0.920919 -0.106920 -0.057611
v 0.920919 0.257543 -0.057611
v 0.977961 -0.406550 -0.057611
v 0.958856 -0.470018 -0.057611
v 0.866174 -0.440200 -0.057611
v 0.884244 -0.380144 -0.057611
v 0.901871 -0.310968 -0.057611
v 0.997191 -0.330744 -0.057611
v 1.010997 -0.251856 -0.057611
v 0.914403 -0.239711 -0.057611
v 0.919850 -0.174720 -0.057611
v 1.017035 -0.180349 -0.057611
v 0.711730 -0.667311 -0.057611
v 0.698027 -0.584432 -0.046876
v 0.687849 -0.585614 -0.046876
v 0.794155 -0.633593 -0.053585
v 0.781429 -0.629351 -0.053585
v 0.864548 -0.745039 -0.057611
v 0.840064 -0.712333 -0.057611
v 0.871928 -0.723512 -0.057611
v 0.791892 -0.641895 -0.057611
v 0.795610 -0.640064 -0.057611
v 0.776312 -0.633570 -0.057611
v 0.778120 -0.637243 -0.057611
v 0.798897 -0.636345 -0.057611
v 0.665253 -0.565236 -0.057611
v 0.814283 -0.168613 -0.050287
v 0.815170 -0.105999 -0.050287
v 0.809484 -0.226485 -0.050287
v 0.798340 -0.289487 -0.050287
v 0.782453 -0.351487 -0.050287
v 0.765509 -0.407801 -0.050287
v 0.707045 -0.578234 -0.050287
v 0.711036 -0.580690 -0.057611
v 0.701177 -0.590823 -0.057611
v 0.687132 -0.592449 -0.057611
v 0.680537 -0.583147 -0.046876
v 0.676954 -0.589026 -0.057611
v 0.673236 -0.576085 -0.046876
v 0.666833 -0.579235 -0.057611
v 0.669915 -0.565747 -0.050287
v 0.728220 -0.395804 -0.050287
v 0.744755 -0.340843 -0.050287
v 0.759948 -0.281526 -0.050287
v 0.770603 -0.221641 -0.050287
v 0.775152 -0.166350 -0.050287
v 0.776005 -0.105635 -0.050287
v 0.776005 0.257543 -0.050287
v 0.791550 -0.636083 -0.053585
v 0.786171 -0.636106 -0.053585
v 0.784397 -0.641371 -0.057611
v 0.781952 -0.632854 -0.053585
v 0.775994 -0.628612 -0.057611
v 0.915540 0.267004 -0.051322
v 0.920907 0.270461 -0.055348
v 1.044487 0.229999 -0.053585
v 1.044487 -0.108012 -0.053585
v 1.022312 -0.107818 -0.053585
v 1.022312 0.257543 -0.053585
v 0.868983 -0.744516 -0.053585
v 0.875726 -0.724842 -0.053585
v 0.896651 -0.732177 -0.053585
v 0.889953 -0.751714 -0.053585
v 1.003173 -0.413669 -0.053585
v 0.983806 -0.478046 -0.053585
v 0.962700 -0.471257 -0.053585
v 0.981839 -0.407631 -0.053585
v 1.022858 -0.336066 -0.053585
v 1.001137 -0.331563 -0.053585
v 1.037005 -0.255109 -0.053585
v 1.015000 -0.252380 -0.053585
v 1.043202 -0.181862 -0.053585
v 1.021061 -0.180588 -0.053585
v 1.048513 0.229999 -0.057611
v 1.044487 0.257543 -0.053585
v 1.048513 0.257543 -0.057611
v 1.056019 0.270461 -0.055348
v 1.056019 0.257543 -0.057611
v 1.048513 0.270461 -0.055348
v 0.902121 0.267004 -0.051322
v 1.018286 0.270461 -0.055348
v 0.815170 0.257543 -0.050287
v 0.819753 0.257543 -0.057611
v 0.896753 0.270461 -0.055348
v 1.044487 0.267004 -0.051322
v 1.022312 0.267004 -0.051322
v 0.879036 0.270461 -0.055348
v 1.056019 0.279854 -0.050424
v 0.879036 0.279854 -0.050424
v 0.879036 0.286462 -0.039825
v 1.056019 0.286462 -0.039825
v 0.879047 0.257543 -0.049571
v 0.821766 0.158071 -0.049810
v 1.065321 0.158071 -0.051936
v 1.056019 0.229999 -0.049548
v 0.710752 0.158071 -0.051856
v 0.766634 0.158071 -0.051140
v 0.766668 0.257543 -0.051117
v 0.711480 0.257543 -0.051856
v 0.774254 0.158071 -0.039825
v 0.816956 0.158071 -0.039836
v 0.816944 0.257543 -0.039825
v 0.774231 0.257543 -0.039825
v 0.823654 0.257543 -0.050571
v 0.879036 0.267868 -0.047728
v 1.056019 0.267868 -0.047728
v 1.056019 0.274373 -0.044522
v 0.879036 0.274373 -0.044522
v 1.056019 0.279627 -0.035572
v 0.879036 0.279627 -0.035572
v 1.065207 0.229999 -0.050446
v 0.706920 0.158071 -0.047888
v 0.706954 0.158071 0.000000
v 1.065321 0.158071 0.000000
v 1.056019 0.257543 -0.049571
v 0.907227 -0.763939 -0.053585
v 0.912344 -0.761437 -0.053585
v 0.564451 -0.642133 -0.053585
v 0.566953 -0.647251 -0.053585
v 1.068823 0.229999 -0.053585
v 0.572559 -0.618491 -0.053585
v 1.068823 -0.108228 -0.053585
v 0.891829 -0.758663 -0.053585
v 0.907227 -0.763939 0.000000
v 0.912344 -0.761437 0.000000
v 1.006971 -0.485495 -0.053585
v 0.919622 -0.740240 -0.053585
v 1.026599 -0.420254 -0.053585
v 1.046682 -0.341013 -0.053585
v 1.061147 -0.258168 -0.053585
v 1.067493 -0.183272 -0.053585
v 0.672679 -0.683505 -0.053585
v 0.863240 -0.748849 -0.053585
v 0.706954 0.257543 -0.047114
v 0.919622 -0.740240 0.000000
v 0.572559 -0.618491 0.000000
v 1.068823 0.229999 0.000000
v 1.068823 -0.108228 0.000000
v 1.067493 -0.183272 0.000000
v 1.006971 -0.485495 0.000000
v 1.026599 -0.420254 0.000000
v 1.061147 -0.258168 0.000000
v 1.046682 -0.341013 0.000000
v 0.672679 -0.683505 0.000000
v 0.566953 -0.647251 0.000000
v 0.706954 0.257543 0.000000
v 1.065207 0.229999 0.000000
v 0.564451 -0.642133 0.000000
v 0.891829 -0.758663 0.000000
v 0.863240 -0.748849 0.000000
v 0.701040 0.257543 0.052891
v 0.701052 -0.104987 0.053585
v 0.686564 -0.266299 0.053585
v 0.672599 -0.320532 0.053585
v 0.656860 -0.372844 0.053585
v 0.696241 -0.212259 0.053585
v 0.700324 -0.162017 0.053585
v 1.048513 -0.108046 0.057611
v 1.064786 -0.108194 0.057611
v 1.064786 0.229999 0.057611
v 1.056019 0.229999 0.057611
v 0.900449 -0.733519 0.057611
v 0.893137 -0.754853 0.057611
v 0.908535 -0.760130 0.057611
v 0.915813 -0.738898 0.057611
v 1.022721 -0.419162 0.057611
v 1.007062 -0.414750 0.057611
v 0.987638 -0.479286 0.057611
v 1.003139 -0.484267 0.057611
v 1.042736 -0.340194 0.057611
v 1.026815 -0.336885 0.057611
v 1.057144 -0.257668 0.057611
v 1.040996 -0.255632 0.057611
v 1.063479 -0.183033 0.057611
v 1.047228 -0.182100 0.057611
v 0.896753 -0.106715 0.057611
v 0.896753 0.257543 0.057611
v 0.879047 0.257543 0.057611
v 0.860977 -0.373594 0.057611
v 0.786865 -0.352715 0.057611
v 0.769875 -0.409200 0.057611
v 0.843168 -0.432797 0.057611
v 0.802832 -0.290419 0.057611
v 0.878194 -0.306056 0.057611
v 0.890419 -0.236686 0.057611
v 0.814033 -0.227077 0.057611
v 0.818855 -0.168875 0.057611
v 0.895707 -0.173333 0.057611
v 0.819753 -0.106033 0.057611
v 0.771433 0.257543 0.057611
v 0.705760 0.257543 0.057611
v 0.705078 -0.105021 0.057611
v 0.771433 -0.105612 0.057611
v 0.567715 -0.642327 0.057611
v 0.674998 -0.680184 0.057611
v 0.668039 -0.651982 0.057611
v 0.575607 -0.619560 0.057611
v 0.740342 -0.339614 0.057611
v 0.676477 -0.321624 0.057611
v 0.660692 -0.374072 0.057611
v 0.723864 -0.394405 0.057611
v 0.690510 -0.267118 0.057611
v 0.755467 -0.280594 0.057611
v 0.766066 -0.221050 0.057611
v 0.700233 -0.212759 0.057611
v 0.704350 -0.162256 0.057611
v 0.770569 -0.166089 0.057611
v 0.809018 0.257543 0.046876
v 0.782169 0.257543 0.046876
v 0.782169 -0.105692 0.046876
v 0.809018 -0.105953 0.046876
v 0.750679 -0.342514 0.046876
v 0.734088 -0.397691 0.046876
v 0.759652 -0.405913 0.046876
v 0.776517 -0.349815 0.046876
v 0.765986 -0.282777 0.046876
v 0.792301 -0.288224 0.046876
v 0.776721 -0.222414 0.046876
v 0.803366 -0.225712 0.046876
v 0.781304 -0.166703 0.046876
v 0.808131 -0.168261 0.046876
v 0.915551 0.257543 0.053585
v 0.902121 0.257543 0.053585
v 0.902132 -0.106749 0.053585
v 0.915551 -0.106886 0.053585
v 0.866151 -0.375038 0.053585
v 0.848286 -0.434435 0.053585
v 0.861068 -0.438551 0.053585
v 0.879070 -0.378712 0.053585
v 0.883459 -0.307147 0.053585
v 0.896617 -0.309877 0.053585
v 0.895741 -0.237380 0.053585
v 0.909080 -0.239006 0.053585
v 0.901075 -0.173640 0.053585
v 0.914482 -0.174413 0.053585
v 1.018286 0.257543 0.057611
v 0.920919 0.257543 0.057611
v 0.920919 -0.106920 0.057611
v 1.018286 -0.107784 0.057611
v 0.977961 -0.406550 0.057611
v 0.884244 -0.380144 0.057611
v 0.866174 -0.440200 0.057611
v 0.958856 -0.470018 0.057611
v 0.901871 -0.310968 0.057611
v 0.997191 -0.330744 0.057611
v 1.010997 -0.251856 0.057611
v 0.914403 -0.239711 0.057611
v 0.919850 -0.174720 0.057611
v 1.017035 -0.180349 0.057611
v 0.711730 -0.667311 0.057611
v 0.687849 -0.585614 0.046876
v 0.794155 -0.633593 0.053585
v 0.781429 -0.629351 0.053585
v 0.864548 -0.745039 0.057611
v 0.871928 -0.723512 0.057611
v 0.840064 -0.712333 0.057611
v 0.791892 -0.641895 0.057611
v 0.795610 -0.640064 0.057611
v 0.776312 -0.633570 0.057611
v 0.778120 -0.637243 0.057611
v 0.798897 -0.636345 0.057611
v 0.665253 -0.565236 0.057611
v 0.814283 -0.168613 0.050287
v 0.815170 -0.105999 0.050287
v 0.809484 -0.226485 0.050287
v 0.798340 -0.289487 0.050287
v 0.782453 -0.351487 0.050287
v 0.765509 -0.407801 0.050287
v 0.707045 -0.578234 0.050287
v 0.711036 -0.580690 0.057611
v 0.698027 -0.584432 0.046876
v 0.701177 -0.590823 0.057611
v 0.687132 -0.592449 0.057611
v 0.680537 -0.583147 0.046876
v 0.676954 -0.589026 0.057611
v 0.673236 -0.576085 0.046876
v 0.666833 -0.579235 0.057611
v 0.669915 -0.565747 0.050287
v 0.728220 -0.395804 0.050287
v 0.744755 -0.340843 0.050287
v 0.759948 -0.281526 0.050287
v 0.770603 -0.221641 0.050287
v 0.775152 -0.166350 0.050287
v 0.776005 -0.105635 0.050287
v 0.776005 0.257543 0.050287
v 0.791550 -0.636083 0.053585
v 0.786171 -0.636106 0.053585
v 0.784397 -0.641371 0.057611
v 0.781952 -0.632854 0.053585
v 0.775994 -0.628612 0.057611
v 0.915540 0.267004 0.051322
v 0.920907 0.270461 0.055348
v 1.044487 0.229999 0.053585
v 1.022312 0.257543 0.053585
v 1.022312 -0.107818 0.053585
v 1.044487 -0.108012 0.053585
v 0.868983 -0.744516 0.053585
v 0.889953 -0.751714 0.053585
v 0.896651 -0.732177 0.053585
v 0.875726 -0.724842 0.053585
v 1.003173 -0.413669 0.053585
v 0.981839 -0.407631 0.053585
v 0.962700 -0.471257 0.053585
v 0.983806 -0.478046 0.053585
v 1.022858 -0.336066 0.053585
v 1.001137 -0.331563 0.053585
v 1.037005 -0.255109 0.053585
v 1.015000 -0.252380 0.053585
v 1.043202 -0.181862 0.053585
v 1.021061 -0.180588 0.053585
v 1.048513 0.229999 0.057611
v 1.048513 0.257543 0.057611
v 1.044487 0.257543 0.053585
v 1.056019 0.270461 0.055348
v 1.048513 0.270461 0.055348
v 1.056019 0.257543 0.057611
v 0.902121 0.267004 0.051322
v 1.018286 0.270461 0.055348
v 0.815170 0.257543 0.050287
v 0.819753 0.257543 0.057611
v 0.896753 0.270461 0.055348
v 1.044487 0.267004 0.051322
v 1.022312 0.267004 0.051322
v 0.879036 0.270461 0.055348
v 1.056019 0.279854 0.050424
v 0.879036 0.279854 0.050424
v 0.879036 0.286462 0.039825
v 1.056019 0.286462 0.039825
v 0.879047 0.257543 0.049571
v 1.056019 0.229999 0.049548
v 1.065321 0.158071 0.051936
v 0.821766 0.158071 0.049810
v 0.710752 0.158071 0.051856
v 0.711480 0.257543 0.051856
v 0.766668 0.257543 0.051117
v 0.766634 0.158071 0.051140
v 0.774254 0.158071 0.039825
v 0.774231 0.257543 0.039825
v 0.816944 0.257543 0.039825
v 0.816956 0.158071 0.039836
v 0.823654 0.257543 0.050571
v 0.879036 0.267868 0.047728
v 0.879036 0.274373 0.044522
v 1.056019 0.274373 0.044522
v 1.056019 0.267868 0.047728
v 0.879036 0.279627 0.035572
v 1.056019 0.279627 0.035572
v 1.065207 0.229999 0.050446
v 0.706920 0.158071 0.047888
v 1.056019 0.257543 0.049571
v 0.907227 -0.763939 0.053585
v 0.912344 -0.761437 0.053585
v 0.564451 -0.642133 0.053585
v 0.566953 -0.647251 0.053585
v 1.068823 0.229999 0.053585
v 0.572559 -0.618491 0.053585
v 1.068823 -0.108228 0.053585
v 0.891829 -0.758663 0.053585
v 1.006971 -0.485495 0.053585
v 0.919622 -0.740240 0.053585
v 1.026599 -0.420254 0.053585
v 1.046682 -0.341013 0.053585
v 1.061147 -0.258168 0.053585
v 1.067493 -0.183272 0.053585
v 0.672679 -0.683505 0.053585
v 0.863240 -0.748849 0.053585
v 0.706954 0.257543 0.047114
vt 2.190300 0.442400
vt 2.190000 0.290800
vt 2.212300 0.291300
vt 2.212300 0.442600
vt 2.196200 0.222900
vt 2.201600 0.200000
vt 2.223300 0.205400
vt 2.218200 0.227200
vt 2.207800 0.177900
vt 2.229300 0.184300
vt 2.192500 0.245700
vt 2.214700 0.248600
vt 2.190700 0.266900
vt 2.213000 0.268400
vt 2.039300 0.288000
vt 2.036200 0.429300
vt 2.032400 0.429100
vt 2.032500 0.287700
vt 2.101600 0.026600
vt 2.095100 0.024500
vt 2.098200 0.015600
vt 2.105000 0.017600
vt 2.050300 0.158100
vt 2.058500 0.130900
vt 2.065000 0.132900
vt 2.056800 0.159800
vt 2.041900 0.191000
vt 2.048500 0.192400
vt 2.035900 0.225400
vt 2.042500 0.226300
vt 2.033100 0.256500
vt 2.039800 0.257000
vt 2.104500 0.289100
vt 2.111900 0.441400
vt 2.104600 0.441200
vt 2.119400 0.177300
vt 2.127000 0.152500
vt 2.157300 0.162400
vt 2.150100 0.186100
vt 2.143400 0.212200
vt 2.112100 0.205600
vt 2.107000 0.234700
vt 2.138900 0.238700
vt 2.136900 0.263100
vt 2.105000 0.261200
vt 2.136600 0.289500
vt 2.160200 0.442000
vt 2.160300 0.290200
vt 2.187800 0.290600
vt 2.187600 0.442200
vt 2.243200 0.064600
vt 2.240300 0.074300
vt 2.201200 0.060500
vt 2.197900 0.048800
vt 2.172700 0.192200
vt 2.179100 0.169100
vt 2.205500 0.177300
vt 2.199300 0.199500
vt 2.193800 0.222500
vt 2.166600 0.216900
vt 2.162500 0.241900
vt 2.190000 0.245400
vt 2.188300 0.266600
vt 2.160700 0.264900
vt 2.142900 0.441700
vt 2.142900 0.289700
vt 2.154000 0.289900
vt 2.154000 0.441800
vt 2.166600 0.190800
vt 2.155900 0.187800
vt 2.162800 0.164600
vt 2.173200 0.167900
vt 2.160300 0.215800
vt 2.149400 0.213500
vt 2.156100 0.241100
vt 2.145100 0.239600
vt 2.154300 0.264400
vt 2.143200 0.263700
vt 2.096300 0.441100
vt 2.096400 0.288800
vt 2.101900 0.288900
vt 2.101900 0.441200
vt 2.116900 0.176600
vt 2.111700 0.175100
vt 2.119400 0.150100
vt 2.124500 0.151700
vt 2.109600 0.205000
vt 2.104200 0.203900
vt 2.104300 0.234300
vt 2.098900 0.233500
vt 2.102300 0.261000
vt 2.096800 0.260600
vt 2.053100 0.441000
vt 2.053100 0.288300
vt 2.093700 0.288700
vt 2.093600 0.441100
vt 2.070100 0.163400
vt 2.078200 0.136900
vt 2.116900 0.149300
vt 2.109100 0.174400
vt 2.101600 0.203300
vt 2.061900 0.195100
vt 2.056100 0.228100
vt 2.096300 0.233200
vt 2.094100 0.260400
vt 2.053600 0.258000
vt 2.182300 0.054100
vt 2.188800 0.090400
vt 2.192500 0.090000
vt 2.147400 0.068600
vt 2.152600 0.070300
vt 2.117900 0.021700
vt 2.128200 0.035400
vt 2.114800 0.030900
vt 2.148400 0.064800
vt 2.146700 0.065500
vt 2.155300 0.068300
vt 2.154400 0.066700
vt 2.145200 0.067100
vt 2.203200 0.097300
vt 2.140400 0.263400
vt 2.140100 0.289600
vt 2.142300 0.239300
vt 2.146700 0.212900
vt 2.153300 0.187100
vt 2.160400 0.163600
vt 2.185000 0.092400
vt 2.182100 0.090500
vt 2.186600 0.086000
vt 2.193000 0.085100
vt 2.195300 0.090900
vt 2.197700 0.086600
vt 2.198000 0.093400
vt 2.202200 0.091000
vt 2.199700 0.097200
vt 2.175800 0.168400
vt 2.169300 0.191400
vt 2.163100 0.216300
vt 2.159000 0.241400
vt 2.157200 0.264600
vt 2.156800 0.290000
vt 2.156800 0.441900
vt 2.148600 0.067700
vt 2.150800 0.067700
vt 2.151700 0.065000
vt 2.152500 0.068900
vt 2.155300 0.070500
vt 2.096300 0.445100
vt 2.093800 0.446700
vt 2.041700 0.429400
vt 2.041600 0.288100
vt 2.050800 0.288200
vt 2.050900 0.441000
vt 2.115300 0.022200
vt 2.112500 0.030300
vt 2.103800 0.027400
vt 2.106700 0.019400
vt 2.059000 0.160400
vt 2.067200 0.133500
vt 2.076000 0.136300
vt 2.067900 0.162800
vt 2.050700 0.192800
vt 2.059700 0.194700
vt 2.044800 0.226600
vt 2.053900 0.227800
vt 2.042100 0.257200
vt 2.051300 0.257800
vt 2.039300 0.429400
vt 2.041700 0.441000
vt 2.039300 0.441000
vt 2.036800 0.446700
vt 2.036200 0.441100
vt 2.040000 0.446600
vt 2.101700 0.445100
vt 2.052900 0.446700
vt 2.140000 0.441600
vt 2.136600 0.441500
vt 2.104100 0.446800
vt 2.041900 0.444900
vt 2.050900 0.444900
vt 2.111500 0.447000
vt 2.037100 0.451100
vt 2.111200 0.451400
vt 2.111200 0.456600
vt 2.037200 0.456400
vt 0.000000 1.000000
vt 0.000000 1.000000
vt 0.000000 1.000000
vt 0.000000 1.000000
vt 0.000000 1.000000
vt 0.000000 1.000000
vt 0.000000 1.000000
vt 0.000000 1.000000
vt 0.000000 1.000000
vt 0.000000 1.000000
vt 0.000000 1.000000
vt 0.000000 1.000000
vt 0.000000 1.000000
vt 0.000000 1.000000
vt 0.000000 1.000000
vt 0.000000 1.000000
vt 0.000000 1.000000
vt 0.000000 1.000000
vt 0.000000 1.000000
vt 0.000000 1.000000
vt 0.000000 1.000000
vt 0.000000 1.000000
vt 0.000000 1.000000
vt 0.000000 1.000000
vt 0.000000 1.000000
vt 0.000000 1.000000
vt 0.000000 1.000000
vt 0.000000 1.000000
vt 0.000000 1.000000
vt 0.000000 1.000000
vt 0.000000 1.000000
vt 0.000000 1.000000
vt 0.000000 1.000000
vt 0.000000 1.000000
vt 0.000000 1.000000
vt 0.000000 1.000000
vt 0.000000 1.000000
vt 0.000000 1.000000
vt 0.000000 1.000000
vt 0.000000 1.000000
vt 0.000000 1.000000
vt 2.009800 0.443000
vt 2.007900 0.442800
vt 2.009500 0.441100
vt 2.009500 0.575900
vt 2.007700 0.574600
vt 2.009800 0.574000
vt 0.000000 1.000000
vt 2.242300 0.074800
vt 2.030000 0.428900
vt 2.030100 0.287500
vt 2.009700 0.448900
vt 2.007700 0.448900
vt 2.029300 0.443000
vt 2.029200 0.441000
vt 2.056200 0.130300
vt 2.092800 0.023800
vt 2.048000 0.157500
vt 2.039700 0.190600
vt 2.033700 0.225100
vt 2.030800 0.256200
vt 2.007700 0.532900
vt 2.009700 0.533300
vt 2.007700 0.459900
vt 2.009700 0.459900
vt 0.000000 1.000000
vt 0.000000 1.000000
vt 2.245400 0.064900
vt 2.095800 0.014900
vt 2.071600 0.016700
vt 2.074600 0.007800
vt 2.263500 0.081700
vt 2.007500 0.428700
vt 2.007600 0.287000
vt 2.008500 0.254700
vt 2.034800 0.123600
vt 2.026400 0.151700
vt 2.011600 0.222100
vt 2.017900 0.186100
vt 2.029300 0.533300
vt 2.029200 0.574000
vt 0.000000 1.000000
vt 0.000000 1.000000
vt 0.000000 1.000000
vt 0.000000 1.000000
vt 2.029200 0.576100
vt 2.266700 0.071800
vt 2.029300 0.448900
vt 2.029300 0.459900
vt 0.190300 0.442400
vt 0.212300 0.442600
vt 0.212300 0.291300
vt 0.190000 0.290800
vt 0.196200 0.222900
vt 0.218200 0.227200
vt 0.223300 0.205400
vt 0.201600 0.200000
vt 0.229300 0.184300
vt 0.207800 0.177900
vt 0.192500 0.245700
vt 0.214700 0.248600
vt 0.213000 0.268400
vt 0.190700 0.266900
vt 0.039300 0.288000
vt 0.032500 0.287700
vt 0.032400 0.429100
vt 0.036200 0.429300
vt 0.101600 0.026600
vt 0.105000 0.017600
vt 0.098200 0.015600
vt 0.095100 0.024500
vt 0.050300 0.158100
vt 0.056800 0.159800
vt 0.065000 0.132900
vt 0.058500 0.130900
vt 0.041900 0.191000
vt 0.048500 0.192400
vt 0.035900 0.225400
vt 0.042500 0.226300
vt 0.033100 0.256500
vt 0.039800 0.257000
vt 0.104500 0.289100
vt 0.104600 0.441200
vt 0.111900 0.441400
vt 0.119400 0.177300
vt 0.150100 0.186100
vt 0.157300 0.162400
vt 0.127000 0.152500
vt 0.143400 0.212200
vt 0.112100 0.205600
vt 0.107000 0.234700
vt 0.138900 0.238700
vt 0.136900 0.263100
vt 0.105000 0.261200
vt 0.136600 0.289500
vt 0.160200 0.442000
vt 0.187600 0.442200
vt 0.187800 0.290600
vt 0.160300 0.290200
vt 0.243200 0.064600
vt 0.197900 0.048800
vt 0.201200 0.060500
vt 0.240300 0.074300
vt 0.172700 0.192200
vt 0.199300 0.199500
vt 0.205500 0.177300
vt 0.179100 0.169100
vt 0.193800 0.222500
vt 0.166600 0.216900
vt 0.162500 0.241900
vt 0.190000 0.245400
vt 0.188300 0.266600
vt 0.160700 0.264900
vt 0.142900 0.441700
vt 0.154000 0.441800
vt 0.154000 0.289900
vt 0.142900 0.289700
vt 0.166600 0.190800
vt 0.173200 0.167900
vt 0.162800 0.164600
vt 0.155900 0.187800
vt 0.160300 0.215800
vt 0.149400 0.213500
vt 0.156100 0.241100
vt 0.145100 0.239600
vt 0.154300 0.264400
vt 0.143200 0.263700
vt 0.096300 0.441100
vt 0.101900 0.441200
vt 0.101900 0.288900
vt 0.096400 0.288800
vt 0.116900 0.176600
vt 0.124500 0.151700
vt 0.119400 0.150100
vt 0.111700 0.175100
vt 0.109600 0.205000
vt 0.104200 0.203900
vt 0.104300 0.234300
vt 0.098900 0.233500
vt 0.102300 0.261000
vt 0.096800 0.260600
vt 0.053100 0.441000
vt 0.093600 0.441100
vt 0.093700 0.288700
vt 0.053100 0.288300
vt 0.070100 0.163400
vt 0.109100 0.174400
vt 0.116900 0.149300
vt 0.078200 0.136900
vt 0.101600 0.203300
vt 0.061900 0.195100
vt 0.056100 0.228100
vt 0.096300 0.233200
vt 0.094100 0.260400
vt 0.053600 0.258000
vt 0.182300 0.054100
vt 0.192500 0.090000
vt 0.147400 0.068600
vt 0.152600 0.070300
vt 0.117900 0.021700
vt 0.114800 0.030900
vt 0.128200 0.035400
vt 0.148400 0.064800
vt 0.146700 0.065500
vt 0.155300 0.068300
vt 0.154400 0.066700
vt 0.145200 0.067100
vt 0.203200 0.097300
vt 0.140400 0.263400
vt 0.140100 0.289600
vt 0.142300 0.239300
vt 0.146700 0.212900
vt 0.153300 0.187100
vt 0.160400 0.163600
vt 0.185000 0.092400
vt 0.182100 0.090500
vt 0.188800 0.090400
vt 0.186600 0.086000
vt 0.193000 0.085100
vt 0.195300 0.090900
vt 0.197700 0.086600
vt 0.198000 0.093400
vt 0.202200 0.091000
vt 0.199700 0.097200
vt 0.175800 0.168400
vt 0.169300 0.191400
vt 0.163100 0.216300
vt 0.159000 0.241400
vt 0.157200 0.264600
vt 0.156800 0.290000
vt 0.156800 0.441900
vt 0.148600 0.067700
vt 0.150800 0.067700
vt 0.151700 0.065000
vt 0.152500 0.068900
vt 0.155300 0.070500
vt 0.096300 0.445100
vt 0.093800 0.446700
vt 0.041700 0.429400
vt 0.050900 0.441000
vt 0.050800 0.288200
vt 0.041600 0.288100
vt 0.115300 0.022200
vt 0.106700 0.019400
vt 0.103800 0.027400
vt 0.112500 0.030300
vt 0.059000 0.160400
vt 0.067900 0.162800
vt 0.076000 0.136300
vt 0.067200 0.133500
vt 0.050700 0.192800
vt 0.059700 0.194700
vt 0.044800 0.226600
vt 0.053900 0.227800
vt 0.042100 0.257200
vt 0.051300 0.257800
vt 0.039300 0.429400
vt 0.039300 0.441000
vt 0.041700 0.441000
vt 0.036800 0.446700
vt 0.040000 0.446600
vt 0.036200 0.441100
vt 0.101700 0.445100
vt 0.052900 0.446700
vt 0.140000 0.441600
vt 0.136600 0.441500
vt 0.104100 0.446800
vt 0.041900 0.444900
vt 0.050900 0.444900
vt 0.111500 0.447000
vt 0.037100 0.451100
vt 0.111200 0.451400
vt 0.111200 0.456600
vt 0.037200 0.456400
vt 0.000000 1.000000
vt 0.000000 1.000000
vt 0.000000 1.000000
vt 0.000000 1.000000
vt 0.000000 1.000000
vt 0.000000 1.000000
vt 0.000000 1.000000
vt 0.000000 1.000000
vt 0.000000 1.000000
vt 0.000000 1.000000
vt 0.000000 1.000000
vt 0.000000 1.000000
vt 0.000000 1.000000
vt 0.000000 1.000000
vt 0.000000 1.000000
vt 0.000000 1.000000
vt 0.000000 1.000000
vt 0.000000 1.000000
vt 0.000000 1.000000
vt 0.000000 1.000000
vt 0.000000 1.000000
vt 0.000000 1.000000
vt 0.000000 1.000000
vt 0.000000 1.000000
vt 0.000000 1.000000
vt 0.000000 1.000000
vt 0.000000 1.000000
vt 0.000000 1.000000
vt 0.000000 1.000000
vt 0.000000 1.000000
vt 0.000000 1.000000
vt 0.000000 1.000000
vt 0.000000 1.000000
vt 0.000000 1.000000
vt 0.000000 1.000000
vt 0.000000 1.000000
vt 0.000000 1.000000
vt 0.000000 1.000000
vt 0.000000 1.000000
vt 0.009800 0.443000
vt 0.009500 0.441100
vt 0.007900 0.442800
vt 0.009500 0.575900
vt 0.009800 0.574000
vt 0.007700 0.574600
vt 0.000000 1.000000
vt 0.242300 0.074800
vt 0.030100 0.287500
vt 0.030000 0.428900
vt 0.009700 0.448900
vt 0.007700 0.448900
vt 0.029300 0.443000
vt 0.029200 0.441000
vt 0.056200 0.130300
vt 0.092800 0.023800
vt 0.048000 0.157500
vt 0.039700 0.190600
vt 0.033700 0.225100
vt 0.030800 0.256200
vt 0.009700 0.533300
vt 0.007700 0.532900
vt 0.009700 0.459900
vt 0.007700 0.459900
vt 0.000000 1.000000
vt 0.000000 1.000000
vt 0.245400 0.064900
vt 0.095800 0.014900
vt 0.074600 0.007800
vt 0.071600 0.016700
vt 0.263500 0.081700
vt 0.007600 0.287000
vt 0.007500 0.428700
vt 0.008500 0.254700
vt 0.034800 0.123600
vt 0.026400 0.151700
vt 0.017900 0.186100
vt 0.011600 0.222100
vt 0.029200 0.574000
vt 0.029300 0.533300
vt 0.029200 0.576100
vt 0.266700 0.071800
vt 0.029300 0.448900
vt 0.029300 0.459900
vn -0.9239 0.0007 -0.3827
vn -0.9238 0.0062 -0.3827
vn -1.0000 0.0064 -0.0000
vn -1.0000 -0.0000 -0.0000
vn -0.9026 0.1967 -0.3829
vn -0.8898 0.2483 -0.3828
vn -0.9632 0.2688 -0.0000
vn -0.9771 0.2130 -0.0000
vn -0.8840 0.2851 -0.3706
vn -0.9519 0.3064 -0.0000
vn -0.9161 0.1190 -0.3830
vn -0.9917 0.1288 -0.0000
vn -0.9228 0.0433 -0.3829
vn -0.9989 0.0469 -0.0000
vn -0.0000 0.0000 -1.0000
vn 0.3820 0.0000 -0.9241
vn 0.3823 -0.0034 -0.9240
vn 0.3616 -0.1240 -0.9240
vn 0.2279 -0.4660 -0.8549
vn -0.1639 -0.4780 -0.8629
vn 0.3687 -0.1021 -0.9239
vn 0.3641 -0.1171 -0.9240
vn 0.3739 -0.0799 -0.9240
vn 0.3791 -0.0491 -0.9240
vn 0.3820 -0.0195 -0.9240
vn 0.0000 0.0577 -0.9983
vn 0.0000 0.0866 -0.9962
vn -0.3826 0.0028 -0.9239
vn -0.3827 0.0007 -0.9239
vn -0.4887 -0.2134 -0.8459
vn -0.3170 0.1093 -0.9421
vn -0.0974 -0.2821 -0.9544
vn -0.3754 0.1214 -0.9189
vn -0.3685 0.1028 -0.9239
vn -0.3737 0.0814 -0.9240
vn -0.3792 0.0493 -0.9240
vn -0.3820 0.0180 -0.9240
vn -0.2505 0.0000 -0.9681
vn -0.2504 0.0018 -0.9681
vn 0.2501 -0.0018 -0.9682
vn 0.2501 0.0000 -0.9682
vn 0.2411 -0.0671 -0.9682
vn -0.2409 0.0671 -0.9682
vn -0.1881 0.0606 -0.9803
vn 0.1565 -0.0503 -0.9864
vn 0.2444 -0.0530 -0.9682
vn -0.2443 0.0528 -0.9683
vn 0.2478 -0.0322 -0.9683
vn -0.2478 0.0321 -0.9683
vn 0.2498 -0.0120 -0.9682
vn -0.2499 0.0121 -0.9682
vn -0.3252 0.1028 -0.9400
vn -0.3162 0.0025 -0.9487
vn 0.3159 -0.0025 -0.9488
vn 0.3251 0.1029 -0.9401
vn 0.3045 -0.0846 -0.9488
vn -0.3047 0.0846 -0.9487
vn -0.3009 0.0968 -0.9487
vn 0.3007 -0.0968 -0.9488
vn 0.3089 -0.0665 -0.9488
vn -0.3091 0.0665 -0.9487
vn 0.3133 -0.0406 -0.9488
vn -0.3134 0.0406 -0.9488
vn 0.3155 -0.0157 -0.9488
vn -0.3156 0.0157 -0.9488
vn 0.0000 0.0866 -0.9962
vn -0.3263 0.4492 -0.8317
vn 0.0395 0.3754 -0.9260
vn -0.2610 0.1675 -0.9507
vn 0.3044 -0.0359 -0.9519
vn -0.1247 -0.3637 -0.9231
vn -0.6872 0.0333 -0.7257
vn -0.6882 0.0049 -0.7255
vn -0.8478 0.0060 -0.5303
vn -0.8468 0.0411 -0.5304
vn -0.6819 0.0884 -0.7261
vn -0.8405 0.1089 -0.5308
vn -0.6721 0.1454 -0.7260
vn -0.8284 0.1791 -0.5307
vn -0.6627 0.1845 -0.7258
vn -0.8167 0.2274 -0.5304
vn -0.6529 0.2102 -0.7277
vn -0.8070 0.2597 -0.5303
vn -0.6465 0.3553 -0.6752
vn -0.7173 0.4410 -0.5395
vn -0.3678 0.7478 -0.5528
vn 0.0880 0.8375 -0.5393
vn 0.2472 0.4062 -0.8797
vn 0.4377 0.7191 -0.5397
vn 0.5323 0.1559 -0.8321
vn 0.7473 0.3678 -0.5535
vn 0.8370 -0.0915 -0.5394
vn 0.7286 -0.1160 -0.6751
vn 0.6532 -0.2100 -0.7274
vn 0.8073 -0.2598 -0.5299
vn 0.6630 -0.1846 -0.7255
vn 0.8170 -0.2274 -0.5300
vn 0.6724 -0.1458 -0.7257
vn 0.8287 -0.1796 -0.5300
vn 0.6821 -0.0885 -0.7259
vn 0.8407 -0.1091 -0.5303
vn 0.6871 -0.0330 -0.7258
vn 0.8468 -0.0407 -0.5304
vn 0.6882 -0.0049 -0.7255
vn 0.8481 -0.0060 -0.5298
vn 0.8483 0.0000 -0.5295
vn 0.6883 0.0000 -0.7254
vn -0.5999 0.0047 -0.8001
vn -0.5989 0.0298 -0.8002
vn -0.5947 0.0770 -0.8002
vn -0.5866 0.1261 -0.8000
vn -0.5782 0.1606 -0.7999
vn -0.5710 0.1838 -0.8001
vn -0.4772 0.3415 -0.8098
vn -0.3516 0.4638 -0.8132
vn -0.1929 0.3428 -0.9194
vn -0.1225 0.5683 -0.8137
vn 0.1263 0.3737 -0.9189
vn 0.1826 0.5403 -0.8214
vn 0.3096 0.1700 -0.9355
vn 0.4423 0.3763 -0.8141
vn 0.5656 0.1625 -0.8085
vn 0.5817 -0.0686 -0.8105
vn 0.5706 -0.1836 -0.8004
vn 0.5778 -0.1605 -0.8003
vn 0.5862 -0.1261 -0.8003
vn 0.5946 -0.0770 -0.8003
vn 0.5988 -0.0297 -0.8004
vn 0.5995 -0.0047 -0.8004
vn 0.6139 0.0777 -0.7856
vn -0.2499 -0.1488 -0.9568
vn -0.3754 -0.3635 -0.8526
vn -0.6140 0.0774 -0.7855
vn -0.3827 0.0000 -0.9239
vn -0.3826 0.0033 -0.9239
vn 0.3826 -0.0033 -0.9239
vn 0.3125 0.0801 -0.9465
vn 0.3961 0.2567 -0.8816
vn 0.3619 -0.1241 -0.9239
vn -0.3619 0.1241 -0.9239
vn -0.1549 0.4456 -0.8818
vn -0.3683 0.1021 -0.9241
vn -0.3640 0.1171 -0.9240
vn 0.3639 -0.1171 -0.9240
vn 0.3686 -0.1021 -0.9240
vn -0.3736 0.0799 -0.9242
vn 0.3739 -0.0800 -0.9240
vn -0.3790 0.0490 -0.9241
vn 0.3789 -0.0491 -0.9241
vn -0.3819 0.0195 -0.9240
vn 0.3818 -0.0194 -0.9241
vn -0.2326 0.6692 -0.7057
vn 0.5949 0.3855 -0.7054
vn 0.6726 -0.2164 -0.7077
vn 0.6811 -0.1888 -0.7074
vn 0.6910 -0.1479 -0.7076
vn 0.7004 -0.0907 -0.7080
vn 0.7056 -0.0358 -0.7077
vn 0.7070 -0.0061 -0.7072
vn 0.7199 0.0680 -0.6907
vn -0.6979 0.0000 -0.7162
vn -0.3920 0.1005 -0.9145
vn -0.7199 0.0680 -0.6907
vn -0.7070 0.0061 -0.7072
vn -0.7059 0.0360 -0.7074
vn -0.7007 0.0907 -0.7077
vn -0.6906 0.1477 -0.7080
vn -0.6807 0.1886 -0.7079
vn -0.6727 0.2165 -0.7075
vn -0.6687 0.2293 -0.7073
vn 0.0000 0.3223 -0.9466
vn 0.0000 0.0866 -0.9962
vn 0.0000 0.3710 -0.9286
vn 0.2499 -0.1486 -0.9568
vn 0.0000 0.3710 -0.9286
vn 0.0000 0.3710 -0.9286
vn -0.8477 0.0000 -0.5305
vn 0.3755 -0.3633 -0.8527
vn -0.2989 -0.1600 -0.9408
vn 0.2989 -0.1600 -0.9408
vn 0.4463 -0.3814 -0.8095
vn 0.0000 0.3710 -0.9286
vn -0.4463 -0.3814 -0.8095
vn 0.0000 0.5754 -0.8179
vn 0.0000 0.6221 -0.7829
vn 0.0000 0.8486 -0.5290
vn -0.0035 -0.0459 0.9989
vn -0.0071 -0.0042 1.0000
vn 0.0507 -0.0185 0.9985
vn 0.0338 -0.0120 0.9994
vn 0.3862 -0.0030 0.9224
vn -0.0131 -0.0001 0.9999
vn -0.4703 -0.0000 0.8825
vn 0.5070 -0.0038 0.8619
vn -0.8302 -0.0000 0.5575
vn 0.8740 -0.0064 0.4859
vn -0.0181 0.0080 0.9998
vn -0.0000 -0.3120 0.9501
vn -0.0000 -0.6809 0.7324
vn -0.0000 -0.8624 0.5063
vn -0.0000 1.0000 -0.0000
vn -1.0000 -0.0010 -0.0002
vn -1.0000 -0.0005 -0.0001
vn 1.0000 0.0000 0.0000
vn -1.0000 -0.0000 -0.0000
vn -0.0000 0.5283 0.8490
vn -0.0000 -0.0878 0.9961
vn 0.0973 -0.0205 0.9950
vn 0.0698 -0.9276 -0.3671
vn 0.6892 -0.6246 -0.3673
vn -0.9388 -0.0616 -0.3390
vn -0.6250 -0.6833 -0.3774
vn -0.8881 0.3054 -0.3436
vn 0.9236 0.0000 -0.3833
vn 0.9237 -0.0082 -0.3831
vn -0.2997 -0.8739 -0.3828
vn 0.0622 -0.9981 0.0000
vn 0.7496 -0.6619 0.0000
vn 0.8794 -0.2829 -0.3829
vn 0.8737 -0.2998 -0.3831
vn 0.8903 -0.2466 -0.3828
vn 0.9033 -0.1931 -0.3830
vn 0.9161 -0.1186 -0.3831
vn 0.9226 -0.0472 -0.3829
vn -0.2993 -0.8704 -0.3910
vn -0.3000 -0.8746 -0.3809
vn 0.9278 -0.0030 0.3730
vn 0.6687 -0.2293 -0.7073
vn 0.9459 -0.3245 0.0000
vn -0.9459 0.3245 -0.0000
vn 1.0000 -0.0089 0.0000
vn 0.9987 -0.0511 0.0000
vn 0.9519 -0.3063 0.0000
vn 0.9637 -0.2670 0.0000
vn 0.9917 -0.1283 0.0000
vn 0.9779 -0.2090 0.0000
vn -0.3244 -0.9459 -0.0000
vn -0.6618 -0.7497 -0.0000
vn -0.9981 -0.0621 -0.0000
vn 1.0000 -0.0002 0.0000
vn -1.0000 -0.0016 -0.0000
vn -0.9239 0.0007 0.3827
vn -0.9238 0.0062 0.3827
vn -0.9026 0.1967 0.3829
vn -0.8898 0.2483 0.3828
vn -0.8840 0.2851 0.3706
vn -0.9161 0.1190 0.3830
vn -0.9228 0.0433 0.3829
vn -0.0000 0.0000 1.0000
vn 0.3823 -0.0034 0.9240
vn 0.3820 0.0000 0.9242
vn -0.1639 -0.4780 0.8629
vn 0.2278 -0.4660 0.8549
vn 0.3616 -0.1240 0.9240
vn 0.3687 -0.1021 0.9239
vn 0.3641 -0.1171 0.9240
vn 0.3739 -0.0799 0.9240
vn 0.3791 -0.0491 0.9240
vn 0.3820 -0.0195 0.9240
vn -0.0000 0.0866 0.9962
vn -0.0000 0.0577 0.9983
vn -0.3827 0.0007 0.9239
vn -0.3826 0.0028 0.9239
vn -0.4887 -0.2134 0.8459
vn -0.0974 -0.2821 0.9544
vn -0.3170 0.1093 0.9421
vn -0.3685 0.1028 0.9239
vn -0.3754 0.1214 0.9189
vn -0.3737 0.0814 0.9240
vn -0.3792 0.0493 0.9240
vn -0.3820 0.0180 0.9240
vn -0.2505 0.0000 0.9681
vn 0.2501 0.0000 0.9682
vn 0.2501 -0.0018 0.9682
vn -0.2504 0.0018 0.9681
vn 0.2411 -0.0671 0.9682
vn 0.1565 -0.0503 0.9864
vn -0.1881 0.0606 0.9803
vn -0.2409 0.0671 0.9682
vn 0.2444 -0.0530 0.9682
vn -0.2443 0.0528 0.9683
vn 0.2478 -0.0322 0.9683
vn -0.2478 0.0321 0.9683
vn 0.2498 -0.0120 0.9682
vn -0.2499 0.0121 0.9682
vn -0.3252 0.1028 0.9400
vn 0.3251 0.1029 0.9401
vn 0.3159 -0.0025 0.9488
vn -0.3162 0.0025 0.9487
vn 0.3045 -0.0846 0.9488
vn 0.3007 -0.0968 0.9488
vn -0.3009 0.0968 0.9487
vn -0.3047 0.0846 0.9487
vn 0.3089 -0.0665 0.9488
vn -0.3091 0.0665 0.9487
vn 0.3133 -0.0406 0.9488
vn -0.3134 0.0406 0.9488
vn 0.3155 -0.0157 0.9488
vn -0.3156 0.0157 0.9488
vn -0.0000 0.0866 0.9962
vn 0.0395 0.3754 0.9260
vn -0.2610 0.1675 0.9507
vn 0.3044 -0.0359 0.9519
vn -0.1247 -0.3637 0.9231
vn -0.6872 0.0333 0.7257
vn -0.8468 0.0411 0.5304
vn -0.8478 0.0060 0.5303
vn -0.6882 0.0049 0.7255
vn -0.6819 0.0884 0.7261
vn -0.8405 0.1089 0.5308
vn -0.6721 0.1454 0.7260
vn -0.8284 0.1791 0.5307
vn -0.6627 0.1845 0.7258
vn -0.8167 0.2274 0.5304
vn -0.6529 0.2102 0.7277
vn -0.8070 0.2597 0.5303
vn -0.6465 0.3553 0.6752
vn -0.7173 0.4410 0.5395
vn -0.3263 0.4492 0.8317
vn -0.3678 0.7478 0.5528
vn 0.0880 0.8375 0.5393
vn 0.2472 0.4062 0.8797
vn 0.4377 0.7191 0.5397
vn 0.5323 0.1559 0.8321
vn 0.7473 0.3678 0.5535
vn 0.8370 -0.0915 0.5394
vn 0.7286 -0.1160 0.6751
vn 0.6532 -0.2100 0.7274
vn 0.8073 -0.2598 0.5299
vn 0.6630 -0.1846 0.7255
vn 0.8170 -0.2274 0.5300
vn 0.6724 -0.1458 0.7257
vn 0.8287 -0.1796 0.5300
vn 0.6821 -0.0885 0.7259
vn 0.8407 -0.1091 0.5303
vn 0.6871 -0.0330 0.7258
vn 0.8468 -0.0407 0.5304
vn 0.6882 -0.0049 0.7255
vn 0.8481 -0.0060 0.5298
vn 0.6883 0.0000 0.7254
vn 0.8483 0.0000 0.5295
vn -0.5989 0.0298 0.8002
vn -0.5999 0.0047 0.8001
vn -0.5947 0.0770 0.8002
vn -0.5866 0.1261 0.8000
vn -0.5782 0.1606 0.7999
vn -0.5710 0.1838 0.8001
vn -0.4772 0.3415 0.8098
vn -0.1929 0.3428 0.9194
vn -0.3516 0.4638 0.8132
vn -0.1225 0.5683 0.8137
vn 0.1263 0.3737 0.9189
vn 0.1826 0.5403 0.8214
vn 0.3096 0.1700 0.9355
vn 0.4423 0.3763 0.8141
vn 0.5656 0.1625 0.8085
vn 0.5817 -0.0686 0.8105
vn 0.5706 -0.1836 0.8004
vn 0.5778 -0.1605 0.8003
vn 0.5862 -0.1261 0.8003
vn 0.5946 -0.0770 0.8003
vn 0.5988 -0.0297 0.8004
vn 0.5995 -0.0047 0.8004
vn 0.6139 0.0777 0.7856
vn -0.2499 -0.1488 0.9568
vn -0.6140 0.0774 0.7855
vn -0.3754 -0.3635 0.8526
vn -0.3827 0.0000 0.9239
vn 0.3125 0.0801 0.9465
vn 0.3826 -0.0033 0.9239
vn -0.3826 0.0033 0.9239
vn 0.3961 0.2567 0.8816
vn -0.1549 0.4456 0.8818
vn -0.3619 0.1241 0.9239
vn 0.3619 -0.1241 0.9239
vn -0.3683 0.1021 0.9241
vn 0.3686 -0.1021 0.9240
vn 0.3639 -0.1171 0.9240
vn -0.3640 0.1171 0.9240
vn -0.3736 0.0799 0.9242
vn 0.3739 -0.0800 0.9240
vn -0.3790 0.0490 0.9241
vn 0.3789 -0.0491 0.9241
vn -0.3819 0.0195 0.9240
vn 0.3818 -0.0194 0.9241
vn 0.5949 0.3855 0.7054
vn -0.2326 0.6692 0.7057
vn 0.6811 -0.1888 0.7074
vn 0.6726 -0.2164 0.7077
vn 0.6910 -0.1479 0.7076
vn 0.7004 -0.0907 0.7080
vn 0.7056 -0.0358 0.7077
vn 0.7070 -0.0061 0.7072
vn 0.7199 0.0680 0.6907
vn -0.6979 0.0000 0.7162
vn -0.7199 0.0680 0.6907
vn -0.3920 0.1005 0.9145
vn -0.7059 0.0360 0.7074
vn -0.7070 0.0061 0.7072
vn -0.7007 0.0907 0.7077
vn -0.6906 0.1477 0.7080
vn -0.6807 0.1886 0.7079
vn -0.6727 0.2165 0.7075
vn -0.6687 0.2293 0.7073
vn -0.0000 0.3223 0.9466
vn -0.0000 0.3710 0.9286
vn -0.0000 0.0866 0.9962
vn 0.2499 -0.1486 0.9568
vn -0.0000 0.3710 0.9286
vn -0.0000 0.3710 0.9286
vn -0.8477 0.0000 0.5305
vn 0.3755 -0.3633 0.8527
vn -0.2989 -0.1600 0.9408
vn 0.2989 -0.1600 0.9408
vn 0.4463 -0.3814 0.8095
vn -0.0000 0.3710 0.9286
vn -0.4463 -0.3814 0.8095
vn -0.0000 0.5754 0.8179
vn 0.0003 0.6423 0.7664
vn -0.0000 0.8486 0.5290
vn -0.0035 -0.0459 -0.9989
vn 0.0338 -0.0120 -0.9994
vn 0.0507 -0.0185 -0.9985
vn -0.0071 -0.0042 -1.0000
vn 0.3862 -0.0030 -0.9224
vn -0.0131 -0.0001 -0.9999
vn -0.4703 -0.0000 -0.8825
vn 0.5070 -0.0038 -0.8619
vn -0.8302 -0.0000 -0.5575
vn 0.8740 -0.0064 -0.4859
vn -0.0181 0.0080 -0.9998
vn 0.0000 -0.3120 -0.9501
vn 0.0000 -0.6809 -0.7324
vn 0.0000 -0.8624 -0.5063
vn -1.0000 -0.0010 0.0002
vn -1.0000 -0.0005 0.0001
vn 0.0000 0.5283 -0.8490
vn 0.0000 -0.0878 -0.9961
vn 0.0973 -0.0205 -0.9950
vn 0.0698 -0.9276 0.3671
vn 0.6892 -0.6246 0.3673
vn -0.9388 -0.0616 0.3390
vn -0.6250 -0.6833 0.3774
vn -0.8881 0.3054 0.3436
vn 0.9237 -0.0082 0.3831
vn 0.9236 0.0000 0.3833
vn -0.2997 -0.8739 0.3828
vn 0.8794 -0.2829 0.3829
vn 0.8737 -0.2998 0.3831
vn 0.8903 -0.2466 0.3828
vn 0.9033 -0.1931 0.3830
vn 0.9161 -0.1186 0.3831
vn 0.9226 -0.0472 0.3829
vn -0.2993 -0.8704 0.3910
vn -0.3000 -0.8746 0.3809
vn 0.9278 -0.0030 -0.3730
vn 0.6687 -0.2293 0.7073
usemtl default
f 1/1/1 2/2/2 3/3/3 4/4/4
f 5/5/5 6/6/6 7/7/7 8/8/8
f 6/6/6 9/9/9 10/10/10 7/7/7
f 11/11/11 5/5/5 8/8/8 12/12/12
f 3/3/3 2/2/2 13/13/13 14/14/14
f 15/15/15 16/16/15 17/17/16 18/18/17
f 19/19/15 20/20/18 21/21/19 22/22/20
f 23/23/21 24/24/22 25/25/15 26/26/15
f 27/27/23 23/23/21 26/26/15 28/28/15
f 29/29/24 27/27/23 28/28/15 30/30/15
f 31/31/25 29/29/24 30/30/15 32/32/15
f 18/18/17 31/31/25 32/32/15 15/15/15
f 33/33/15 34/34/26 35/35/27
f 36/36/15 37/37/15 38/38/15 39/39/15
f 40/40/15 41/41/15 36/36/15 39/39/15
f 42/42/15 41/41/15 40/40/15 43/43/15
f 44/44/15 45/45/15 42/42/15 43/43/15
f 33/33/15 45/45/15 44/44/15 46/46/15
f 47/47/15 48/48/15 49/49/28 50/50/29
f 51/51/30 52/52/31 53/53/15 54/54/32
f 55/55/15 56/56/15 57/57/33 58/58/34
f 59/59/35 60/60/15 55/55/15 58/58/34
f 61/61/15 60/60/15 59/59/35 62/62/36
f 63/63/37 64/64/15 61/61/15 62/62/36
f 48/48/15 64/64/15 63/63/37 49/49/28
f 65/65/38 66/66/39 67/67/40 68/68/41
f 69/69/42 70/70/43 71/71/44 72/72/45
f 73/73/46 74/74/47 70/70/43 69/69/42
f 75/75/48 76/76/49 74/74/47 73/73/46
f 77/77/50 78/78/51 76/76/49 75/75/48
f 67/67/40 66/66/39 78/78/51 77/77/50
f 79/79/52 80/80/53 81/81/54 82/82/55
f 83/83/56 84/84/57 85/85/58 86/86/59
f 87/87/60 88/88/61 84/84/57 83/83/56
f 89/89/62 90/90/63 88/88/61 87/87/60
f 91/91/64 92/92/65 90/90/63 89/89/62
f 81/81/54 80/80/53 92/92/65 91/91/64
f 93/93/66 94/94/15 95/95/15 96/96/66
f 97/97/15 98/98/15 99/99/15 100/100/15
f 101/101/15 102/102/15 97/97/15 100/100/15
f 103/103/15 102/102/15 101/101/15 104/104/15
f 105/105/15 106/106/15 103/103/15 104/104/15
f 94/94/15 106/106/15 105/105/15 95/95/15
f 54/54/32 53/53/15 107/107/15
f 71/71/44 108/108/67 109/109/68
f 110/110/69 111/111/70 86/86/59 85/85/58
f 112/112/71 113/113/15 114/114/15
f 115/115/15 116/116/15 113/113/15
f 117/117/15 118/118/15 107/107/15
f 119/119/15 113/113/15 116/116/15
f 57/57/33 56/56/15 120/120/15 52/52/31
f 121/121/72 122/122/73 46/46/74 44/44/75
f 123/123/76 121/121/72 44/44/75 43/43/77
f 124/124/78 123/123/76 43/43/77 40/40/79
f 125/125/80 124/124/78 40/40/79 39/39/81
f 126/126/82 125/125/80 39/39/81 38/38/83
f 127/127/84 126/126/82 38/38/83 128/128/85
f 128/128/85 129/129/86 108/108/67 127/127/84
f 109/109/68 108/108/67 129/129/86 130/130/87
f 131/131/88 109/109/68 130/130/87 132/132/89
f 133/133/90 131/131/88 132/132/89 134/134/91
f 120/120/92 135/135/93 133/133/90 134/134/91
f 136/136/94 135/135/93 120/120/92 56/56/95
f 137/137/96 136/136/94 56/56/95 55/55/97
f 138/138/98 137/137/96 55/55/97 60/60/99
f 139/139/100 138/138/98 60/60/99 61/61/101
f 140/140/102 139/139/100 61/61/101 64/64/103
f 141/141/104 140/140/102 64/64/103 48/48/105
f 141/141/104 48/48/105 47/47/106 142/142/107
f 92/92/65 80/80/53 95/95/108 105/105/109
f 90/90/63 92/92/65 105/105/109 104/104/110
f 88/88/61 90/90/63 104/104/110 101/101/111
f 84/84/57 88/88/61 101/101/111 100/100/112
f 85/85/58 84/84/57 100/100/112 99/99/113
f 110/110/69 85/85/58 99/99/113 119/119/114
f 119/119/114 116/116/115 143/143/116
f 116/116/115 115/115/117 143/143/116
f 144/144/118 143/143/116 115/115/117 145/145/119
f 146/146/120 144/144/118 145/145/119 118/118/121
f 118/118/121 117/117/122 146/146/120
f 111/111/70 146/146/120 117/117/122 147/147/123
f 86/86/59 111/111/70 147/147/123 37/37/124
f 83/83/56 86/86/59 37/37/124 36/36/125
f 87/87/60 83/83/56 36/36/125 41/41/126
f 89/89/62 87/87/60 41/41/126 42/42/127
f 91/91/64 89/89/62 42/42/127 45/45/128
f 81/81/54 91/91/64 45/45/128 33/33/129
f 81/81/54 33/33/129 35/35/130 82/82/55
f 148/148/131 149/149/132 96/96/133 79/79/52
f 150/150/134 151/151/135 152/152/136 153/153/137
f 154/154/138 155/155/139 156/156/140 157/157/141
f 158/158/142 159/159/143 160/160/144 161/161/145
f 162/162/146 158/158/142 161/161/145 163/163/147
f 164/164/148 162/162/146 163/163/147 165/165/149
f 166/166/150 164/164/148 165/165/149 167/167/151
f 151/151/135 166/166/150 167/167/151 152/152/136
f 154/154/138 157/157/141 22/22/152 112/112/153
f 161/161/145 160/160/144 98/98/154 97/97/155
f 163/163/147 161/161/145 97/97/155 102/102/156
f 165/165/149 163/163/147 102/102/156 103/103/157
f 167/167/151 165/165/149 103/103/157 106/106/158
f 152/152/136 167/167/151 106/106/158 94/94/159
f 152/152/136 94/94/159 93/93/160 153/153/137
f 168/168/161 150/150/134 169/169/162 170/170/163
f 166/166/150 151/151/135 15/15/164 32/32/165
f 164/164/148 166/166/150 32/32/165 30/30/166
f 162/162/146 164/164/148 30/30/166 28/28/167
f 158/158/142 162/162/146 28/28/167 26/26/168
f 159/159/143 158/158/142 26/26/168 25/25/169
f 25/25/169 19/19/170 156/156/140 159/159/143
f 171/171/171 172/172/172 170/170/172 173/173/173
f 79/79/52 82/82/55 174/174/174 148/148/131
f 93/93/66 96/96/66 149/149/175 175/175/176
f 176/176/161 177/177/177 46/46/74 122/122/73
f 82/82/55 35/35/130 178/178/178 174/174/174
f 79/79/52 96/96/133 95/95/108 80/80/53
f 179/179/179 169/169/162 153/153/137 180/180/180
f 153/153/137 93/93/160 175/175/181 180/180/180
f 150/150/134 168/168/161 15/15/164 151/151/135
f 34/34/26 181/181/171 178/178/182 35/35/27
f 34/34/26 33/33/15 46/46/15 177/177/15
f 175/175/181 173/173/183 179/179/179 180/180/180
f 178/178/178 149/149/132 148/148/131 174/174/174
f 173/173/173 182/182/184 171/171/171
f 181/181/171 183/183/185 178/178/182
f 184/184/186 185/185/186 182/182/184 183/183/185
f 186/186/187 187/187/188 188/188/189 189/189/190
f 190/190/191 191/191/192 192/192/192 193/193/191
f 194/194/193 195/195/194 196/196/194 197/197/193
f 192/192/195 191/191/195 194/194/193 197/197/193
f 187/187/196 198/198/196 196/196/194 195/195/194
f 186/186/187 198/198/197 187/187/188
f 199/199/198 200/200/198 201/201/199 202/202/199
f 201/201/199 203/203/200 204/204/200 202/202/199
f 193/193/201 192/192/201 47/205/201 50/206/201
f 65/207/201 68/208/201 197/197/201 196/196/201
f 142/209/201 47/205/201 192/192/201 197/197/201
f 205/210/201 17/211/201 16/212/201 189/189/201
f 177/213/201 176/214/201 196/196/201 198/198/201
f 186/186/202 199/199/203 181/215/203 34/216/202
f 198/198/201 186/186/201 34/216/201 177/213/201
f 201/201/204 200/200/204 171/217/204 182/218/204
f 199/199/203 202/202/205 183/219/205 181/215/203
f 203/203/204 201/201/204 182/218/204 185/220/204
f 204/204/206 203/203/206 185/220/206 184/221/206
f 202/202/205 204/204/205 184/221/205 183/219/205
f 183/183/185 149/149/175 178/178/182
f 173/173/173 175/175/176 182/182/184
f 183/183/185 182/182/184 175/175/176 149/149/175
f 194/194/201 206/222/201 207/223/201
f 187/187/201 195/195/201 208/224/201 188/188/201
f 195/195/201 194/194/201 207/223/201 208/224/201
f 65/207/201 196/196/201 176/214/201
f 142/209/201 197/197/201 68/208/201
f 67/67/40 141/141/104 142/142/107 68/68/41
f 65/65/38 176/176/161 122/122/73 66/66/39
f 72/72/45 136/136/94 137/137/96 69/69/42
f 70/70/43 125/125/80 126/126/82 71/71/44
f 69/69/42 137/137/96 138/138/98 73/73/46
f 74/74/47 124/124/78 125/125/80 70/70/43
f 73/73/46 138/138/98 139/139/100 75/75/48
f 76/76/49 123/123/76 124/124/78 74/74/47
f 75/75/48 139/139/100 140/140/102 77/77/50
f 78/78/51 121/121/72 123/123/76 76/76/49
f 77/77/50 140/140/102 141/141/104 67/67/40
f 66/66/39 122/122/73 121/121/72 78/78/51
f 71/71/44 126/126/82 127/127/84 108/108/67
f 133/133/90 135/135/93 136/136/94 72/72/45
f 189/189/190 209/225/207 186/186/187
f 172/226/204 209/225/204 189/189/204 16/212/204
f 15/15/15 168/168/15 16/16/15
f 188/188/189 205/210/208 189/189/190
f 210/227/209 21/228/19 211/229/210
f 212/230/211 51/231/30 213/232/212
f 17/211/201 205/210/201 214/233/201
f 1/1/1 50/50/29 49/49/28 2/2/2
f 2/2/2 49/49/28 63/63/37 13/13/13
f 13/13/13 63/63/37 62/62/36 11/11/11
f 9/9/9 57/57/33 52/52/31 215/234/213
f 5/5/5 59/59/35 58/58/34 6/6/6
f 6/6/6 58/58/34 57/57/33 9/9/9
f 11/11/11 62/62/36 59/59/35 5/5/5
f 17/17/16 214/235/214 216/236/215 18/18/17
f 217/237/216 22/238/20 21/228/19 210/227/209
f 218/239/217 210/227/209 211/229/210 219/240/218
f 220/241/219 221/242/220 20/20/18 24/24/22
f 23/23/21 222/243/221 220/241/219 24/24/22
f 27/27/23 223/244/222 222/243/221 23/23/21
f 29/29/24 224/245/223 223/244/222 27/27/23
f 31/31/25 225/246/224 224/245/223 29/29/24
f 18/18/17 216/236/215 225/246/224 31/31/25
f 213/232/212 51/231/30 54/247/32 226/248/225
f 54/247/32 112/249/71 227/250/226 226/248/225
f 227/250/226 112/249/71 22/238/20 217/237/216
f 206/222/227 190/190/191 193/193/191 228/251/227
f 228/251/201 193/193/201 50/206/201 1/252/201
f 191/191/201 190/190/201 206/222/201 194/194/201
f 114/114/228 155/155/139 154/154/138 112/112/153
f 128/128/15 38/38/15 37/37/15 147/147/15
f 129/129/15 128/128/15 147/147/15
f 143/143/116 110/110/69 119/119/114
f 25/25/15 24/24/22 20/20/18 19/19/15
f 120/120/15 134/134/15 53/53/15 52/52/31
f 53/53/15 132/132/15 130/130/15
f 107/107/15 145/145/15 113/113/15
f 53/53/15 130/130/15 129/129/15 107/107/15
f 114/114/15 113/113/15 119/119/15 98/98/15
f 113/113/15 145/145/15 115/115/15
f 107/107/15 118/118/15 145/145/15
f 53/53/15 134/134/15 132/132/15
f 160/160/144 159/159/143 156/156/140 155/155/139
f 98/98/154 160/160/144 155/155/139 114/114/228
f 112/112/71 54/54/32 107/107/15 113/113/15
f 51/51/30 212/253/211 215/234/213 52/52/31
f 211/254/210 221/242/220 229/255/229 219/256/218
f 19/19/170 22/22/152 157/157/141 156/156/140
f 211/254/210 21/21/19 20/20/18 221/242/220
f 179/179/179 173/173/183 170/170/163 169/169/162
f 16/16/15 168/168/15 170/170/172 172/172/172
f 172/226/204 171/217/204 200/200/204 209/225/204
f 169/169/162 150/150/134 153/153/137
f 200/200/198 199/199/198 186/186/187 209/225/207
f 110/110/69 143/143/116 146/146/120 111/111/70
f 143/143/116 144/144/118 146/146/120
f 215/234/213 230/257/230 10/10/10 9/9/9
f 214/235/214 231/258/204 232/259/231 216/236/215
f 216/236/215 232/259/231 233/260/232 225/246/224
f 220/241/219 234/261/233 229/255/229 221/242/220
f 222/243/221 235/262/234 234/261/233 220/241/219
f 224/245/223 236/263/235 237/264/236 223/244/222
f 223/244/222 237/264/236 235/262/234 222/243/221
f 225/246/224 233/260/232 236/263/235 224/245/223
f 226/248/225 238/265/237 239/266/238 213/232/212
f 4/267/201 240/268/201 228/251/201 1/252/201
f 205/210/201 241/269/201 231/270/201 214/233/201
f 213/232/212 239/266/238 242/271/239 212/230/211
f 212/253/211 242/272/239 230/257/230 215/234/213
f 11/11/11 12/12/12 14/14/14 13/13/13
f 210/227/209 218/239/217 243/273/237 217/237/216
f 227/250/226 244/274/237 238/265/237 226/248/225
f 217/237/216 243/273/237 244/274/237 227/250/226
f 228/251/227 240/268/240 207/223/240 206/222/227
f 208/224/241 241/269/241 205/210/241 188/188/241
f 245/275/242 4/276/4 3/277/3 246/278/243
f 247/279/244 8/280/8 7/281/7 248/282/245
f 248/282/245 7/281/7 10/283/10 249/284/246
f 250/285/247 12/286/12 8/280/8 247/279/244
f 3/277/3 14/287/14 251/288/248 246/278/243
f 252/289/249 253/290/250 254/291/251 255/292/249
f 256/293/249 257/294/252 258/295/253 259/296/254
f 260/297/255 261/298/249 262/299/249 263/300/256
f 264/301/257 265/302/249 261/298/249 260/297/255
f 266/303/258 267/304/249 265/302/249 264/301/257
f 268/305/259 269/306/249 267/304/249 266/303/258
f 253/290/250 252/289/249 269/306/249 268/305/259
f 270/307/249 271/308/260 272/309/261
f 273/310/249 274/311/249 275/312/249 276/313/249
f 277/314/249 274/311/249 273/310/249 278/315/249
f 279/316/249 280/317/249 277/314/249 278/315/249
f 281/318/249 280/317/249 279/316/249 282/319/249
f 270/307/249 283/320/249 281/318/249 282/319/249
f 284/321/249 285/322/262 286/323/263 287/324/249
f 288/325/264 289/326/265 290/327/249 291/328/266
f 292/329/249 293/330/267 294/331/268 295/332/249
f 296/333/269 293/330/267 292/329/249 297/334/249
f 298/335/249 299/336/270 296/333/269 297/334/249
f 300/337/271 299/336/270 298/335/249 301/338/249
f 287/324/249 286/323/263 300/337/271 301/338/249
f 302/339/272 303/340/273 304/341/274 305/342/275
f 306/343/276 307/344/277 308/345/278 309/346/279
f 310/347/280 306/343/276 309/346/279 311/348/281
f 312/349/282 310/347/280 311/348/281 313/350/283
f 314/351/284 312/349/282 313/350/283 315/352/285
f 304/341/274 314/351/284 315/352/285 305/342/275
f 316/353/286 317/354/287 318/355/288 319/356/289
f 320/357/290 321/358/291 322/359/292 323/360/293
f 324/361/294 320/357/290 323/360/293 325/362/295
f 326/363/296 324/361/294 325/362/295 327/364/297
f 328/365/298 326/363/296 327/364/297 329/366/299
f 318/355/288 328/365/298 329/366/299 319/356/289
f 330/367/300 331/368/300 332/369/249 333/370/249
f 334/371/249 335/372/249 336/373/249 337/374/249
f 338/375/249 335/372/249 334/371/249 339/376/249
f 340/377/249 341/378/249 338/375/249 339/376/249
f 342/379/249 341/378/249 340/377/249 343/380/249
f 333/370/249 332/369/249 342/379/249 343/380/249
f 289/326/265 344/381/249 290/327/249
f 308/345/278 307/344/277 345/382/301
f 346/383/302 322/359/292 321/358/291 347/384/303
f 348/385/304 349/386/249 350/387/249
f 351/388/249 350/387/249 352/389/249
f 353/390/249 344/381/249 354/391/249
f 355/392/249 352/389/249 350/387/249
f 294/331/268 291/328/266 356/393/249 295/332/249
f 357/394/305 281/318/306 283/320/307 358/395/308
f 359/396/309 280/317/310 281/318/306 357/394/305
f 360/397/311 277/314/312 280/317/310 359/396/309
f 361/398/313 274/311/314 277/314/312 360/397/311
f 362/399/315 275/312/316 274/311/314 361/398/313
f 363/400/317 364/401/318 275/312/316 362/399/315
f 364/401/318 363/400/317 365/402/319 366/403/320
f 345/382/301 367/404/321 366/403/320 365/402/319
f 368/405/322 369/406/323 367/404/321 345/382/301
f 370/407/324 371/408/325 369/406/323 368/405/322
f 356/393/326 371/408/325 370/407/324 372/409/327
f 373/410/328 295/332/329 356/393/326 372/409/327
f 374/411/330 292/329/331 295/332/329 373/410/328
f 375/412/332 297/334/333 292/329/331 374/411/330
f 376/413/334 298/335/335 297/334/333 375/412/332
f 377/414/336 301/338/337 298/335/335 376/413/334
f 378/415/338 287/324/339 301/338/337 377/414/336
f 378/415/338 379/416/340 284/321/341 287/324/339
f 329/366/299 342/379/342 332/369/343 319/356/289
f 327/364/297 341/378/344 342/379/342 329/366/299
f 325/362/295 338/375/345 341/378/344 327/364/297
f 323/360/293 335/372/346 338/375/345 325/362/295
f 322/359/292 336/373/347 335/372/346 323/360/293
f 346/383/302 355/392/348 336/373/347 322/359/292
f 355/392/348 380/417/349 352/389/350
f 352/389/350 380/417/349 351/388/351
f 381/418/352 382/419/353 351/388/351 380/417/349
f 383/420/354 354/391/355 382/419/353 381/418/352
f 354/391/355 383/420/354 353/390/356
f 347/384/303 384/421/357 353/390/356 383/420/354
f 321/358/291 276/313/358 384/421/357 347/384/303
f 320/357/290 273/310/359 276/313/358 321/358/291
f 324/361/294 278/315/360 273/310/359 320/357/290
f 326/363/296 279/316/361 278/315/360 324/361/294
f 328/365/298 282/319/362 279/316/361 326/363/296
f 318/355/288 270/307/363 282/319/362 328/365/298
f 318/355/288 317/354/287 271/308/364 270/307/363
f 385/422/365 316/353/286 331/368/366 386/423/367
f 387/424/368 388/425/369 389/426/370 390/427/371
f 391/428/372 392/429/373 393/430/374 394/431/375
f 395/432/376 396/433/377 397/434/378 398/435/379
f 399/436/380 400/437/381 396/433/377 395/432/376
f 401/438/382 402/439/383 400/437/381 399/436/380
f 403/440/384 404/441/385 402/439/383 401/438/382
f 390/427/371 389/426/370 404/441/385 403/440/384
f 391/428/372 348/385/386 257/294/387 392/429/373
f 396/433/377 334/371/388 337/374/389 397/434/378
f 400/437/381 339/376/390 334/371/388 396/433/377
f 402/439/383 340/377/391 339/376/390 400/437/381
f 404/441/385 343/380/392 340/377/391 402/439/383
f 389/426/370 333/370/393 343/380/392 404/441/385
f 389/426/370 388/425/369 330/367/394 333/370/393
f 405/442/395 406/443/396 407/444/397 387/424/368
f 403/440/384 269/306/398 252/289/399 390/427/371
f 401/438/382 267/304/400 269/306/398 403/440/384
f 399/436/380 265/302/401 267/304/400 401/438/382
f 395/432/376 261/298/402 265/302/401 399/436/380
f 398/435/379 262/299/403 261/298/402 395/432/376
f 262/299/403 398/435/379 393/430/374 256/293/404
f 408/445/405 409/446/406 406/443/407 410/447/407
f 316/353/286 385/422/365 411/448/408 317/354/287
f 330/367/300 412/449/409 386/423/410 331/368/300
f 413/450/395 358/395/308 283/320/307 414/451/411
f 317/354/287 411/448/408 415/452/412 271/308/364
f 316/353/286 319/356/289 332/369/343 331/368/366
f 416/453/413 417/454/414 388/425/369 407/444/397
f 388/425/369 417/454/414 412/449/415 330/367/394
f 387/424/368 390/427/371 252/289/399 405/442/395
f 272/309/261 271/308/260 415/452/416 418/455/405
f 272/309/261 414/451/249 283/320/249 270/307/249
f 412/449/415 417/454/414 416/453/413 409/446/417
f 415/452/412 411/448/408 385/422/365 386/423/367
f 409/446/406 408/445/405 419/456/418
f 418/455/405 415/452/416 420/457/419
f 421/458/420 420/457/419 419/456/418 422/459/420
f 423/460/421 424/461/422 425/462/423 426/463/424
f 427/464/425 428/465/425 429/466/426 430/467/426
f 431/468/427 432/469/427 433/470/428 434/471/428
f 429/466/429 432/469/427 431/468/427 430/467/429
f 426/463/430 434/471/428 433/470/428 435/472/430
f 423/460/421 426/463/424 435/472/431
f 436/473/432 437/474/433 438/475/433 439/476/432
f 438/475/433 437/474/433 440/477/434 441/478/434
f 428/465/201 285/479/201 284/480/201 429/466/201
f 302/481/201 433/470/201 432/469/201 303/482/201
f 379/483/201 432/469/201 429/466/201 284/480/201
f 442/484/201 424/461/201 255/485/201 254/486/201
f 414/487/201 435/472/201 433/470/201 413/488/201
f 423/460/435 272/489/435 418/490/436 436/473/436
f 435/472/201 414/487/201 272/489/201 423/460/201
f 438/475/204 419/491/204 408/492/204 439/476/204
f 436/473/436 418/490/436 420/493/205 437/474/205
f 441/478/204 422/494/204 419/491/204 438/475/204
f 440/477/437 421/495/437 422/494/437 441/478/437
f 437/474/205 420/493/205 421/495/205 440/477/205
f 420/457/419 415/452/416 386/423/410
f 409/446/406 419/456/418 412/449/409
f 420/457/419 386/423/410 412/449/409 419/456/418
f 431/468/201 207/223/201 443/496/201
f 426/463/201 425/462/201 208/224/201 434/471/201
f 434/471/201 208/224/201 207/223/201 431/468/201
f 302/481/201 413/488/201 433/470/201
f 379/483/201 303/482/201 432/469/201
f 304/341/274 303/340/273 379/416/340 378/415/338
f 302/339/272 305/342/275 358/395/308 413/450/395
f 307/344/277 306/343/276 374/411/330 373/410/328
f 309/346/279 308/345/278 362/399/315 361/398/313
f 306/343/276 310/347/280 375/412/332 374/411/330
f 311/348/281 309/346/279 361/398/313 360/397/311
f 310/347/280 312/349/282 376/413/334 375/412/332
f 313/350/283 311/348/281 360/397/311 359/396/309
f 312/349/282 314/351/284 377/414/336 376/413/334
f 315/352/285 313/350/283 359/396/309 357/394/305
f 314/351/284 304/341/274 378/415/338 377/414/336
f 305/342/275 315/352/285 357/394/305 358/395/308
f 308/345/278 365/402/319 363/400/317 362/399/315
f 370/407/324 307/344/277 373/410/328 372/409/327
f 424/461/422 423/460/421 444/497/438
f 410/498/204 255/485/204 424/461/204 444/497/204
f 252/289/249 255/292/249 405/442/249
f 425/462/423 424/461/422 442/484/439
f 445/499/440 446/500/441 258/501/253
f 447/502/442 448/503/443 288/504/264
f 254/486/201 449/505/201 442/484/201
f 245/275/242 246/278/243 286/323/263 285/322/262
f 246/278/243 251/288/248 300/337/271 286/323/263
f 251/288/248 250/285/247 299/336/270 300/337/271
f 249/284/246 450/506/444 291/328/266 294/331/268
f 247/279/244 248/282/245 293/330/267 296/333/269
f 248/282/245 249/284/246 294/331/268 293/330/267
f 250/285/247 247/279/244 296/333/269 299/336/270
f 254/291/251 253/290/250 451/507/445 449/508/446
f 452/509/447 445/499/440 258/501/253 257/510/252
f 218/511/217 219/512/218 446/500/441 445/499/440
f 453/513/448 263/300/256 259/296/254 454/514/449
f 260/297/255 263/300/256 453/513/448 455/515/450
f 264/301/257 260/297/255 455/515/450 456/516/451
f 266/303/258 264/301/257 456/516/451 457/517/452
f 268/305/259 266/303/258 457/517/452 458/518/453
f 253/290/250 268/305/259 458/518/453 451/507/445
f 448/503/443 459/519/454 289/520/265 288/504/264
f 289/520/265 459/519/454 460/521/455 348/522/304
f 460/521/455 452/509/447 257/510/252 348/522/304
f 443/496/456 461/523/456 428/465/425 427/464/425
f 461/523/201 245/524/201 285/479/201 428/465/201
f 430/467/201 431/468/201 443/496/201 427/464/201
f 349/386/457 348/385/386 391/428/372 394/431/375
f 364/401/249 384/421/249 276/313/249 275/312/249
f 366/403/249 384/421/249 364/401/249
f 380/417/349 355/392/348 346/383/302
f 262/299/249 256/293/249 259/296/254 263/300/256
f 356/393/249 291/328/266 290/327/249 371/408/249
f 290/327/249 367/404/249 369/406/249
f 344/381/249 350/387/249 382/419/249
f 290/327/249 344/381/249 367/404/249
f 350/387/249 349/386/249 337/374/249 336/373/249
f 350/387/249 351/388/249 382/419/249
f 344/381/249 382/419/249 354/391/249
f 290/327/249 369/406/249 371/408/249
f 397/434/378 394/431/375 393/430/374 398/435/379
f 337/374/389 349/386/457 394/431/375 397/434/378
f 348/385/304 350/387/249 344/381/249 289/326/265
f 288/325/264 291/328/266 450/506/444 447/525/442
f 446/526/441 219/527/218 229/528/229 454/514/449
f 256/293/404 393/430/374 392/429/373 257/294/387
f 446/526/441 454/514/449 259/296/254 258/295/253
f 416/453/413 407/444/397 406/443/396 409/446/417
f 255/292/249 410/447/407 406/443/407 405/442/249
f 410/498/204 444/497/204 439/476/204 408/492/204
f 407/444/397 388/425/369 387/424/368
f 439/476/432 444/497/438 423/460/421 436/473/432
f 346/383/302 347/384/303 383/420/354 380/417/349
f 380/417/349 383/420/354 381/418/352
f 450/506/444 249/284/246 10/283/10 230/529/230
f 449/508/446 451/507/445 232/530/231 231/531/204
f 451/507/445 458/518/453 233/532/232 232/530/231
f 453/513/448 454/514/449 229/528/229 234/533/233
f 455/515/450 453/513/448 234/533/233 235/534/234
f 457/517/452 456/516/451 237/535/236 236/536/235
f 456/516/451 455/515/450 235/534/234 237/535/236
f 458/518/453 457/517/452 236/536/235 233/532/232
f 459/519/454 448/503/443 239/537/238 238/538/237
f 4/267/201 245/524/201 461/523/201 240/268/201
f 442/484/201 449/505/201 231/270/201 241/269/201
f 448/503/443 447/502/442 242/539/239 239/537/238
f 447/525/442 450/506/444 230/529/230 242/540/239
f 250/285/247 251/288/248 14/287/14 12/286/12
f 445/499/440 452/509/447 243/541/237 218/511/217
f 460/521/455 459/519/454 238/538/237 244/542/237
f 452/509/447 460/521/455 244/542/237 243/541/237
f 461/523/456 443/496/456 207/223/240 240/268/240
f 208/224/241 425/462/241 442/484/241 241/269/241
f 98/98/15 119/119/15 99/99/15
f 72/72/45 109/109/68 131/131/88
f 71/71/44 109/109/68 72/72/45
f 72/72/45 131/131/88 133/133/90
f 107/107/15 129/129/15 147/147/15 117/117/15
f 367/404/249 344/381/249 366/403/249
f 308/345/278 345/382/301 365/402/319
f 345/382/301 307/344/277 368/405/322
f 368/405/322 307/344/277 370/407/324
f 384/421/249 366/403/249 344/381/249 353/390/249
f 350/387/249 336/373/249 355/392/249
