# FAMAS part: Magazine body
mtllib FAMAS_V2.mtl
g mag_body
v -0.465100 2.706000 -0.309100
v -0.471200 -0.481900 -0.309200
v 0.000000 -0.481900 -0.309200
v 0.000000 2.706000 -0.309100
v -0.471200 -1.900400 -0.181800
v -0.471200 -2.377300 -0.059000
v 0.000000 -2.377300 -0.059000
v 0.000000 -1.900400 -0.181800
v -0.471200 -2.837300 0.079400
v 0.000000 -2.837300 0.079400
v -0.471200 -1.425200 -0.266900
v 0.000000 -1.425200 -0.266900
v -0.471200 -0.983400 -0.302800
v 0.000000 -0.983400 -0.302800
v -0.506600 -0.508800 -3.364600
v -0.506600 2.463800 -3.430600
v -0.506600 2.463800 -3.507699
v -0.506600 -0.510100 -3.507699
v -0.506600 -6.008900 -2.062600
v -0.506600 -6.056200 -2.197701
v -0.506600 -6.242900 -2.133700
v -0.506600 -6.196500 -1.998300
v -0.506600 -3.244600 -3.137800
v -0.506600 -3.817100 -2.965600
v -0.506600 -3.773300 -2.829299
v -0.506600 -3.205800 -3.000100
v -0.506600 -2.550200 -3.313800
v -0.506600 -2.521100 -3.173800
v -0.506600 -1.824500 -3.440500
v -0.506600 -1.806600 -3.298500
v -0.506600 -1.168200 -3.496201
v -0.506600 -1.160000 -3.353300
v -0.506600 -0.497100 -2.030100
v -0.506600 2.706000 -1.874400
v -0.506600 2.706000 -2.030100
v -0.506600 -2.843900 -1.715500
v -0.506600 -3.364500 -1.558900
v -0.506600 -3.157000 -0.914400
v -0.506600 -2.660300 -1.063800
v -0.506600 -2.112500 -1.204200
v -0.506600 -2.250000 -1.866900
v -0.506600 -1.640000 -1.974400
v -0.506600 -1.555500 -1.302700
v -0.506600 -1.043700 -1.345100
v -0.506600 -1.082900 -2.020900
v -0.506600 -0.491100 -1.353000
v -0.506600 2.706000 -0.928100
v -0.506600 -0.487400 -0.928100
v -0.506600 -0.482200 -0.344600
v -0.506600 2.706000 -0.350600
v -0.506600 -5.207000 0.863300
v -0.506600 -5.006800 0.793900
v -0.506600 -5.291900 -0.018900
v -0.506600 -5.539900 -0.080100
v -0.506600 -2.545100 -0.654700
v -0.506600 -3.026900 -0.509800
v -0.506600 -2.848100 0.045700
v -0.506600 -2.386900 -0.093100
v -0.506600 -1.907600 -0.216500
v -0.506600 -2.026100 -0.787700
v -0.506600 -1.502500 -0.880900
v -0.506600 -1.429600 -0.302000
v -0.506600 -0.985500 -0.338200
v -0.506600 -1.019200 -0.920500
v -0.412200 2.706000 -1.258600
v -0.412200 -0.490400 -1.258600
v -0.412200 -0.488100 -1.022500
v -0.412200 2.706000 -1.022500
v -0.412200 -2.570600 -0.745600
v -0.412200 -2.634800 -0.972800
v -0.412200 -3.128100 -0.824500
v -0.412200 -3.055800 -0.599700
v -0.412200 -2.045300 -0.880200
v -0.412200 -2.093200 -1.111600
v -0.412200 -1.514500 -0.974600
v -0.412200 -1.543500 -1.208900
v -0.412200 -1.024600 -1.014900
v -0.412200 -1.038300 -1.250800
v -0.471200 2.706000 -2.195400
v -0.471200 -0.498600 -2.195400
v -0.471200 -0.497400 -2.077400
v -0.471200 2.706000 -2.077300
v -0.471200 -2.856600 -1.761000
v -0.471200 -2.888900 -1.874600
v -0.471200 -3.415100 -1.716300
v -0.471200 -3.378900 -1.603900
v -0.471200 -2.259600 -1.913200
v -0.471200 -2.283600 -2.028900
v -0.471200 -1.646100 -2.021200
v -0.471200 -1.660400 -2.138500
v -0.471200 -1.085600 -2.068100
v -0.471200 -1.092400 -2.186000
v -0.506600 2.706000 -3.098800
v -0.506600 -0.506500 -3.098800
v -0.506600 -0.498900 -2.242599
v -0.506600 2.706000 -2.242599
v -0.506600 -3.133700 -2.744200
v -0.506600 -3.691800 -2.576200
v -0.506600 -3.429600 -1.761200
v -0.506600 -2.901500 -1.920100
v -0.506600 -2.293200 -2.075100
v -0.506600 -2.467100 -2.913300
v -0.506600 -1.773400 -3.034700
v -0.506600 -1.666600 -2.185300
v -0.506600 -1.095100 -2.233200
v -0.506600 -1.144600 -3.087801
v -0.506600 -5.426700 -0.403100
v -0.412200 -4.697900 -0.282600
v -0.412200 -4.708300 -0.193100
v -0.471200 -5.130200 -1.127900
v -0.471200 -5.092900 -1.016000
v -0.506600 -6.110200 -1.746900
v -0.506600 -5.822600 -1.531600
v -0.506600 -5.920900 -1.811800
v -0.506600 -5.203200 -1.108000
v -0.506600 -5.187100 -1.140700
v -0.506600 -5.130000 -0.971000
v -0.506600 -5.162300 -0.986900
v -0.506600 -5.154400 -1.169600
v -0.506600 -4.529100 0.005600
v -0.442200 -1.041400 -1.304900
v -0.442200 -0.490800 -1.312700
v -0.442200 -1.550300 -1.262700
v -0.442200 -2.104300 -1.164700
v -0.442200 -2.649500 -1.025000
v -0.442200 -3.144700 -0.876000
v -0.442200 -4.643400 -0.361900
v -0.506600 -4.665000 -0.397000
v -0.506600 -4.754100 -0.310300
v -0.506600 -4.768400 -0.186800
v -0.412200 -4.686600 -0.128800
v -0.506600 -4.738300 -0.097300
v -0.412200 -4.624500 -0.064600
v -0.506600 -4.652200 -0.008300
v -0.442200 -4.533600 -0.035400
v -0.442200 -3.039200 -0.548100
v -0.442200 -2.555900 -0.693500
v -0.442200 -2.034300 -0.827100
v -0.442200 -1.507700 -0.920800
v -0.442200 -1.021500 -0.960800
v -0.442200 -0.487600 -0.968300
v -0.442200 2.706000 -0.968300
v -0.471200 -5.152100 -1.105000
v -0.471200 -5.152300 -1.057700
v -0.506600 -5.198600 -1.042100
v -0.471200 -5.123700 -1.020600
v -0.506600 -5.086400 -0.968200
v -0.451300 2.789200 -2.195301
v -0.486700 2.819600 -2.242500
v -0.471200 2.463800 -3.329200
v -0.471200 -0.508500 -3.329200
v -0.471200 -0.506800 -3.134201
v -0.471200 2.706000 -3.134201
v -0.471200 -6.105600 -1.785900
v -0.471200 -5.932600 -1.845200
v -0.471200 -5.997100 -2.029200
v -0.471200 -6.168900 -1.970300
v -0.471200 -3.196300 -2.965900
v -0.471200 -3.762400 -2.795600
v -0.471200 -3.702700 -2.610000
v -0.471200 -3.143200 -2.778300
v -0.471200 -2.513900 -3.138999
v -0.471200 -2.474300 -2.947999
v -0.471200 -1.802000 -3.263401
v -0.471200 -1.778000 -3.069901
v -0.471200 -1.157900 -3.317900
v -0.471200 -1.146700 -3.123199
v -0.506600 2.463800 -3.364600
v -0.471200 2.706000 -3.329200
v -0.506600 2.706000 -3.364600
v -0.486700 2.819600 -3.430600
v -0.506600 2.706000 -3.430600
v -0.486700 2.819600 -3.364600
v -0.451300 2.789200 -2.077300
v -0.486700 2.819600 -3.098800
v -0.442200 2.706000 -1.312700
v -0.506600 2.706000 -1.353000
v -0.486700 2.819600 -2.030100
v -0.451300 2.789200 -3.329200
v -0.451300 2.789200 -3.134201
v -0.486700 2.819600 -1.874300
v -0.443400 2.902200 -3.430600
v -0.443400 2.902200 -1.874300
v -0.350200 2.960300 -1.874300
v -0.350200 2.960300 -3.430600
v -0.435900 2.706000 -1.874400
v -0.438000 1.831300 -1.370700
v -0.456700 1.831300 -3.512400
v -0.435700 2.463800 -3.430600
v -0.456000 1.831300 -0.394500
v -0.449700 1.831300 -0.885900
v -0.449500 2.706000 -0.886200
v -0.456000 2.706000 -0.400900
v -0.350200 1.831300 -0.952900
v -0.350300 1.831300 -1.328400
v -0.350200 2.706000 -1.328300
v -0.350200 2.706000 -0.952700
v -0.444700 2.706000 -1.387300
v -0.419700 2.796800 -1.874300
v -0.419700 2.796800 -3.430600
v -0.391500 2.854000 -3.430600
v -0.391500 2.854000 -1.874300
v -0.312800 2.900200 -3.430600
v -0.312800 2.900200 -1.874300
v -0.443600 2.463800 -3.511400
v -0.421100 1.831300 -0.360800
v 0.000000 1.831300 -0.361100
v 0.000000 1.831300 -3.512400
v -0.435900 2.706000 -3.430600
v -0.471200 -6.276400 -2.122200
v -0.471200 -6.254400 -2.167200
v -0.471200 -5.205300 0.892000
v -0.471200 -5.250300 0.870000
v -0.471200 2.463800 -3.543200
v -0.471200 -4.997400 0.820700
v -0.471200 -0.510400 -3.543200
v -0.471200 -6.230000 -1.986800
v 0.000000 -6.276400 -2.122200
v 0.000000 -6.254400 -2.167200
v -0.471200 -3.827900 -2.999300
v -0.471200 -6.068000 -2.231200
v -0.471200 -3.254200 -3.171900
v -0.471200 -2.557400 -3.348500
v -0.471200 -1.828900 -3.475700
v -0.471200 -1.170300 -3.531500
v -0.471200 -5.569100 -0.059700
v -0.471200 -6.143700 -1.735400
v -0.414300 2.706000 -0.361100
v 0.000000 -6.068000 -2.231200
v 0.000000 -4.997400 0.820700
v 0.000000 2.463800 -3.543200
v 0.000000 -0.510400 -3.543200
v 0.000000 -1.170300 -3.531500
v 0.000000 -3.827900 -2.999300
v 0.000000 -3.254200 -3.171900
v 0.000000 -1.828900 -3.475700
v 0.000000 -2.557400 -3.348500
v 0.000000 -5.569100 -0.059700
v 0.000000 -5.250300 0.870000
v 0.000000 2.706000 -0.361100
v 0.000000 2.463800 -3.511400
v 0.000000 -5.205300 0.892000
v 0.000000 -6.230000 -1.986800
v 0.000000 -6.143700 -1.735400
v 0.465100 2.706000 -0.309100
v 0.471200 -0.481900 -0.309200
v 0.471200 -1.900400 -0.181800
v 0.471200 -2.377300 -0.059000
v 0.471200 -2.837300 0.079400
v 0.471200 -1.425200 -0.266900
v 0.471200 -0.983400 -0.302800
v 0.506600 -0.508800 -3.364600
v 0.506600 -0.510100 -3.507699
v 0.506600 2.463800 -3.507699
v 0.506600 2.463800 -3.430600
v 0.506600 -6.008900 -2.062600
v 0.506600 -6.196500 -1.998300
v 0.506600 -6.242900 -2.133700
v 0.506600 -6.056200 -2.197701
v 0.506600 -3.244600 -3.137800
v 0.506600 -3.205800 -3.000100
v 0.506600 -3.773300 -2.829299
v 0.506600 -3.817100 -2.965600
v 0.506600 -2.550200 -3.313800
v 0.506600 -2.521100 -3.173800
v 0.506600 -1.824500 -3.440500
v 0.506600 -1.806600 -3.298500
v 0.506600 -1.168200 -3.496201
v 0.506600 -1.160000 -3.353300
v 0.506600 -0.497100 -2.030100
v 0.506600 2.706000 -2.030100
v 0.506600 2.706000 -1.874400
v 0.506600 -2.843900 -1.715500
v 0.506600 -2.660300 -1.063800
v 0.506600 -3.157000 -0.914400
v 0.506600 -3.364500 -1.558900
v 0.506600 -2.112500 -1.204200
v 0.506600 -2.250000 -1.866900
v 0.506600 -1.640000 -1.974400
v 0.506600 -1.555500 -1.302700
v 0.506600 -1.043700 -1.345100
v 0.506600 -1.082900 -2.020900
v 0.506600 -0.491100 -1.353000
v 0.506600 2.706000 -0.928100
v 0.506600 2.706000 -0.350600
v 0.506600 -0.482200 -0.344600
v 0.506600 -0.487400 -0.928100
v 0.506600 -5.207000 0.863300
v 0.506600 -5.539900 -0.080100
v 0.506600 -5.291900 -0.018900
v 0.506600 -5.006800 0.793900
v 0.506600 -2.545100 -0.654700
v 0.506600 -2.386900 -0.093100
v 0.506600 -2.848100 0.045700
v 0.506600 -3.026900 -0.509800
v 0.506600 -1.907600 -0.216500
v 0.506600 -2.026100 -0.787700
v 0.506600 -1.502500 -0.880900
v 0.506600 -1.429600 -0.302000
v 0.506600 -0.985500 -0.338200
v 0.506600 -1.019200 -0.920500
v 0.412200 2.706000 -1.258600
v 0.412200 2.706000 -1.022500
v 0.412200 -0.488100 -1.022500
v 0.412200 -0.490400 -1.258600
v 0.412200 -2.570600 -0.745600
v 0.412200 -3.055800 -0.599700
v 0.412200 -3.128100 -0.824500
v 0.412200 -2.634800 -0.972800
v 0.412200 -2.045300 -0.880200
v 0.412200 -2.093200 -1.111600
v 0.412200 -1.514500 -0.974600
v 0.412200 -1.543500 -1.208900
v 0.412200 -1.024600 -1.014900
v 0.412200 -1.038300 -1.250800
v 0.471200 2.706000 -2.195400
v 0.471200 2.706000 -2.077300
v 0.471200 -0.497400 -2.077400
v 0.471200 -0.498600 -2.195400
v 0.471200 -2.856600 -1.761000
v 0.471200 -3.378900 -1.603900
v 0.471200 -3.415100 -1.716300
v 0.471200 -2.888900 -1.874600
v 0.471200 -2.259600 -1.913200
v 0.471200 -2.283600 -2.028900
v 0.471200 -1.646100 -2.021200
v 0.471200 -1.660400 -2.138500
v 0.471200 -1.085600 -2.068100
v 0.471200 -1.092400 -2.186000
v 0.506600 2.706000 -3.098800
v 0.506600 2.706000 -2.242599
v 0.506600 -0.498900 -2.242599
v 0.506600 -0.506500 -3.098800
v 0.506600 -3.133700 -2.744200
v 0.506600 -2.901500 -1.920100
v 0.506600 -3.429600 -1.761200
v 0.506600 -3.691800 -2.576200
v 0.506600 -2.293200 -2.075100
v 0.506600 -2.467100 -2.913300
v 0.506600 -1.773400 -3.034700
v 0.506600 -1.666600 -2.185300
v 0.506600 -1.095100 -2.233200
v 0.506600 -1.144600 -3.087801
v 0.506600 -5.426700 -0.403100
v 0.412200 -4.708300 -0.193100
v 0.471200 -5.130200 -1.127900
v 0.471200 -5.092900 -1.016000
v 0.506600 -6.110200 -1.746900
v 0.506600 -5.920900 -1.811800
v 0.506600 -5.822600 -1.531600
v 0.506600 -5.203200 -1.108000
v 0.506600 -5.187100 -1.140700
v 0.506600 -5.130000 -0.971000
v 0.506600 -5.162300 -0.986900
v 0.506600 -5.154400 -1.169600
v 0.506600 -4.529100 0.005600
v 0.442200 -1.041400 -1.304900
v 0.442200 -0.490800 -1.312700
v 0.442200 -1.550300 -1.262700
v 0.442200 -2.104300 -1.164700
v 0.442200 -2.649500 -1.025000
v 0.442200 -3.144700 -0.876000
v 0.442200 -4.643400 -0.361900
v 0.506600 -4.665000 -0.397000
v 0.412200 -4.697900 -0.282600
v 0.506600 -4.754100 -0.310300
v 0.506600 -4.768400 -0.186800
v 0.412200 -4.686600 -0.128800
v 0.506600 -4.738300 -0.097300
v 0.412200 -4.624500 -0.064600
v 0.506600 -4.652200 -0.008300
v 0.442200 -4.533600 -0.035400
v 0.442200 -3.039200 -0.548100
v 0.442200 -2.555900 -0.693500
v 0.442200 -2.034300 -0.827100
v 0.442200 -1.507700 -0.920800
v 0.442200 -1.021500 -0.960800
v 0.442200 -0.487600 -0.968300
v 0.442200 2.706000 -0.968300
v 0.471200 -5.152100 -1.105000
v 0.471200 -5.152300 -1.057700
v 0.506600 -5.198600 -1.042100
v 0.471200 -5.123700 -1.020600
v 0.506600 -5.086400 -0.968200
v 0.451300 2.789200 -2.195301
v 0.486700 2.819600 -2.242500
v 0.471200 2.463800 -3.329200
v 0.471200 2.706000 -3.134201
v 0.471200 -0.506800 -3.134201
v 0.471200 -0.508500 -3.329200
v 0.471200 -6.105600 -1.785900
v 0.471200 -6.168900 -1.970300
v 0.471200 -5.997100 -2.029200
v 0.471200 -5.932600 -1.845200
v 0.471200 -3.196300 -2.965900
v 0.471200 -3.143200 -2.778300
v 0.471200 -3.702700 -2.610000
v 0.471200 -3.762400 -2.795600
v 0.471200 -2.513900 -3.138999
v 0.471200 -2.474300 -2.947999
v 0.471200 -1.802000 -3.263401
v 0.471200 -1.778000 -3.069901
v 0.471200 -1.157900 -3.317900
v 0.471200 -1.146700 -3.123199
v 0.506600 2.463800 -3.364600
v 0.506600 2.706000 -3.364600
v 0.471200 2.706000 -3.329200
v 0.486700 2.819600 -3.430600
v 0.486700 2.819600 -3.364600
v 0.506600 2.706000 -3.430600
v 0.451300 2.789200 -2.077300
v 0.486700 2.819600 -3.098800
v 0.442200 2.706000 -1.312700
v 0.506600 2.706000 -1.353000
v 0.486700 2.819600 -2.030100
v 0.451300 2.789200 -3.329200
v 0.451300 2.789200 -3.134201
v 0.486700 2.819600 -1.874300
v 0.443400 2.902200 -3.430600
v 0.443400 2.902200 -1.874300
v 0.350200 2.960300 -1.874300
v 0.350200 2.960300 -3.430600
v 0.435900 2.706000 -1.874400
v 0.435700 2.463800 -3.430600
v 0.456700 1.831300 -3.512400
v 0.438000 1.831300 -1.370700
v 0.456000 1.831300 -0.394500
v 0.456000 2.706000 -0.400900
v 0.449500 2.706000 -0.886200
v 0.449700 1.831300 -0.885900
v 0.350200 1.831300 -0.952900
v 0.350200 2.706000 -0.952700
v 0.350200 2.706000 -1.328300
v 0.350300 1.831300 -1.328400
v 0.444700 2.706000 -1.387300
v 0.419700 2.796800 -1.874300
v 0.391500 2.854000 -1.874300
v 0.391500 2.854000 -3.430600
v 0.419700 2.796800 -3.430600
v 0.312800 2.900200 -1.874300
v 0.312800 2.900200 -3.430600
v 0.443600 2.463800 -3.511400
v 0.421100 1.831300 -0.360800
v 0.435900 2.706000 -3.430600
v 0.471200 -6.276400 -2.122200
v 0.471200 -6.254400 -2.167200
v 0.471200 -5.205300 0.892000
v 0.471200 -5.250300 0.870000
v 0.471200 2.463800 -3.543200
v 0.471200 -4.997400 0.820700
v 0.471200 -0.510400 -3.543200
v 0.471200 -6.230000 -1.986800
v 0.471200 -3.827900 -2.999300
v 0.471200 -6.068000 -2.231200
v 0.471200 -3.254200 -3.171900
v 0.471200 -2.557400 -3.348500
v 0.471200 -1.828900 -3.475700
v 0.471200 -1.170300 -3.531500
v 0.471200 -5.569100 -0.059700
v 0.471200 -6.143700 -1.735400
v 0.414300 2.706000 -0.361100
vt 2.190300 0.442400
vt 2.190000 0.290800
vt 2.212300 0.291300
vt 2.212300 0.442600
vt 2.196200 0.222900
vt 2.201600 0.200000
vt 2.223300 0.205400
vt 2.218200 0.227200
vt 2.207800 0.177900
vt 2.229300 0.184300
vt 2.192500 0.245700
vt 2.214700 0.248600
vt 2.190700 0.266900
vt 2.213000 0.268400
vt 2.039300 0.288000
vt 2.036200 0.429300
vt 2.032400 0.429100
vt 2.032500 0.287700
vt 2.101600 0.026600
vt 2.095100 0.024500
vt 2.098200 0.015600
vt 2.105000 0.017600
vt 2.050300 0.158100
vt 2.058500 0.130900
vt 2.065000 0.132900
vt 2.056800 0.159800
vt 2.041900 0.191000
vt 2.048500 0.192400
vt 2.035900 0.225400
vt 2.042500 0.226300
vt 2.033100 0.256500
vt 2.039800 0.257000
vt 2.104500 0.289100
vt 2.111900 0.441400
vt 2.104600 0.441200
vt 2.119400 0.177300
vt 2.127000 0.152500
vt 2.157300 0.162400
vt 2.150100 0.186100
vt 2.143400 0.212200
vt 2.112100 0.205600
vt 2.107000 0.234700
vt 2.138900 0.238700
vt 2.136900 0.263100
vt 2.105000 0.261200
vt 2.136600 0.289500
vt 2.160200 0.442000
vt 2.160300 0.290200
vt 2.187800 0.290600
vt 2.187600 0.442200
vt 2.243200 0.064600
vt 2.240300 0.074300
vt 2.201200 0.060500
vt 2.197900 0.048800
vt 2.172700 0.192200
vt 2.179100 0.169100
vt 2.205500 0.177300
vt 2.199300 0.199500
vt 2.193800 0.222500
vt 2.166600 0.216900
vt 2.162500 0.241900
vt 2.190000 0.245400
vt 2.188300 0.266600
vt 2.160700 0.264900
vt 2.142900 0.441700
vt 2.142900 0.289700
vt 2.154000 0.289900
vt 2.154000 0.441800
vt 2.166600 0.190800
vt 2.155900 0.187800
vt 2.162800 0.164600
vt 2.173200 0.167900
vt 2.160300 0.215800
vt 2.149400 0.213500
vt 2.156100 0.241100
vt 2.145100 0.239600
vt 2.154300 0.264400
vt 2.143200 0.263700
vt 2.096300 0.441100
vt 2.096400 0.288800
vt 2.101900 0.288900
vt 2.101900 0.441200
vt 2.116900 0.176600
vt 2.111700 0.175100
vt 2.119400 0.150100
vt 2.124500 0.151700
vt 2.109600 0.205000
vt 2.104200 0.203900
vt 2.104300 0.234300
vt 2.098900 0.233500
vt 2.102300 0.261000
vt 2.096800 0.260600
vt 2.053100 0.441000
vt 2.053100 0.288300
vt 2.093700 0.288700
vt 2.093600 0.441100
vt 2.070100 0.163400
vt 2.078200 0.136900
vt 2.116900 0.149300
vt 2.109100 0.174400
vt 2.101600 0.203300
vt 2.061900 0.195100
vt 2.056100 0.228100
vt 2.096300 0.233200
vt 2.094100 0.260400
vt 2.053600 0.258000
vt 2.182300 0.054100
vt 2.188800 0.090400
vt 2.192500 0.090000
vt 2.147400 0.068600
vt 2.152600 0.070300
vt 2.117900 0.021700
vt 2.128200 0.035400
vt 2.114800 0.030900
vt 2.148400 0.064800
vt 2.146700 0.065500
vt 2.155300 0.068300
vt 2.154400 0.066700
vt 2.145200 0.067100
vt 2.203200 0.097300
vt 2.140400 0.263400
vt 2.140100 0.289600
vt 2.142300 0.239300
vt 2.146700 0.212900
vt 2.153300 0.187100
vt 2.160400 0.163600
vt 2.185000 0.092400
vt 2.182100 0.090500
vt 2.186600 0.086000
vt 2.193000 0.085100
vt 2.195300 0.090900
vt 2.197700 0.086600
vt 2.198000 0.093400
vt 2.202200 0.091000
vt 2.199700 0.097200
vt 2.175800 0.168400
vt 2.169300 0.191400
vt 2.163100 0.216300
vt 2.159000 0.241400
vt 2.157200 0.264600
vt 2.156800 0.290000
vt 2.156800 0.441900
vt 2.148600 0.067700
vt 2.150800 0.067700
vt 2.151700 0.065000
vt 2.152500 0.068900
vt 2.155300 0.070500
vt 2.096300 0.445100
vt 2.093800 0.446700
vt 2.041700 0.429400
vt 2.041600 0.288100
vt 2.050800 0.288200
vt 2.050900 0.441000
vt 2.115300 0.022200
vt 2.112500 0.030300
vt 2.103800 0.027400
vt 2.106700 0.019400
vt 2.059000 0.160400
vt 2.067200 0.133500
vt 2.076000 0.136300
vt 2.067900 0.162800
vt 2.050700 0.192800
vt 2.059700 0.194700
vt 2.044800 0.226600
vt 2.053900 0.227800
vt 2.042100 0.257200
vt 2.051300 0.257800
vt 2.039300 0.429400
vt 2.041700 0.441000
vt 2.039300 0.441000
vt 2.036800 0.446700
vt 2.036200 0.441100
vt 2.040000 0.446600
vt 2.101700 0.445100
vt 2.052900 0.446700
vt 2.140000 0.441600
vt 2.136600 0.441500
vt 2.104100 0.446800
vt 2.041900 0.444900
vt 2.050900 0.444900
vt 2.111500 0.447000
vt 2.037100 0.451100
vt 2.111200 0.451400
vt 2.111200 0.456600
vt 2.037200 0.456400
vt 0.000000 1.000000
vt 0.000000 1.000000
vt 0.000000 1.000000
vt 0.000000 1.000000
vt 0.000000 1.000000
vt 0.000000 1.000000
vt 0.000000 1.000000
vt 0.000000 1.000000
vt 0.000000 1.000000
vt 0.000000 1.000000
vt 0.000000 1.000000
vt 0.000000 1.000000
vt 0.000000 1.000000
vt 0.000000 1.000000
vt 0.000000 1.000000
vt 0.000000 1.000000
vt 0.000000 1.000000
vt 0.000000 1.000000
vt 0.000000 1.000000
vt 0.000000 1.000000
vt 0.000000 1.000000
vt 0.000000 1.000000
vt 0.000000 1.000000
vt 0.000000 1.000000
vt 0.000000 1.000000
vt 0.000000 1.000000
vt 0.000000 1.000000
vt 0.000000 1.000000
vt 0.000000 1.000000
vt 0.000000 1.000000
vt 0.000000 1.000000
vt 0.000000 1.000000
vt 0.000000 1.000000
vt 0.000000 1.000000
vt 0.000000 1.000000
vt 0.000000 1.000000
vt 0.000000 1.000000
vt 0.000000 1.000000
vt 0.000000 1.000000
vt 0.000000 1.000000
vt 0.000000 1.000000
vt 2.009800 0.443000
vt 2.007900 0.442800
vt 2.009500 0.441100
vt 2.009500 0.575900
vt 2.007700 0.574600
vt 2.009800 0.574000
vt 0.000000 1.000000
vt 2.242300 0.074800
vt 2.030000 0.428900
vt 2.030100 0.287500
vt 2.009700 0.448900
vt 2.007700 0.448900
vt 2.029300 0.443000
vt 2.029200 0.441000
vt 2.056200 0.130300
vt 2.092800 0.023800
vt 2.048000 0.157500
vt 2.039700 0.190600
vt 2.033700 0.225100
vt 2.030800 0.256200
vt 2.007700 0.532900
vt 2.009700 0.533300
vt 2.007700 0.459900
vt 2.009700 0.459900
vt 0.000000 1.000000
vt 0.000000 1.000000
vt 2.245400 0.064900
vt 2.095800 0.014900
vt 2.071600 0.016700
vt 2.074600 0.007800
vt 2.263500 0.081700
vt 2.007500 0.428700
vt 2.007600 0.287000
vt 2.008500 0.254700
vt 2.034800 0.123600
vt 2.026400 0.151700
vt 2.011600 0.222100
vt 2.017900 0.186100
vt 2.029300 0.533300
vt 2.029200 0.574000
vt 0.000000 1.000000
vt 0.000000 1.000000
vt 0.000000 1.000000
vt 0.000000 1.000000
vt 2.029200 0.576100
vt 2.266700 0.071800
vt 2.029300 0.448900
vt 2.029300 0.459900
vt 0.190300 0.442400
vt 0.212300 0.442600
vt 0.212300 0.291300
vt 0.190000 0.290800
vt 0.196200 0.222900
vt 0.218200 0.227200
vt 0.223300 0.205400
vt 0.201600 0.200000
vt 0.229300 0.184300
vt 0.207800 0.177900
vt 0.192500 0.245700
vt 0.214700 0.248600
vt 0.213000 0.268400
vt 0.190700 0.266900
vt 0.039300 0.288000
vt 0.032500 0.287700
vt 0.032400 0.429100
vt 0.036200 0.429300
vt 0.101600 0.026600
vt 0.105000 0.017600
vt 0.098200 0.015600
vt 0.095100 0.024500
vt 0.050300 0.158100
vt 0.056800 0.159800
vt 0.065000 0.132900
vt 0.058500 0.130900
vt 0.041900 0.191000
vt 0.048500 0.192400
vt 0.035900 0.225400
vt 0.042500 0.226300
vt 0.033100 0.256500
vt 0.039800 0.257000
vt 0.104500 0.289100
vt 0.104600 0.441200
vt 0.111900 0.441400
vt 0.119400 0.177300
vt 0.150100 0.186100
vt 0.157300 0.162400
vt 0.127000 0.152500
vt 0.143400 0.212200
vt 0.112100 0.205600
vt 0.107000 0.234700
vt 0.138900 0.238700
vt 0.136900 0.263100
vt 0.105000 0.261200
vt 0.136600 0.289500
vt 0.160200 0.442000
vt 0.187600 0.442200
vt 0.187800 0.290600
vt 0.160300 0.290200
vt 0.243200 0.064600
vt 0.197900 0.048800
vt 0.201200 0.060500
vt 0.240300 0.074300
vt 0.172700 0.192200
vt 0.199300 0.199500
vt 0.205500 0.177300
vt 0.179100 0.169100
vt 0.193800 0.222500
vt 0.166600 0.216900
vt 0.162500 0.241900
vt 0.190000 0.245400
vt 0.188300 0.266600
vt 0.160700 0.264900
vt 0.142900 0.441700
vt 0.154000 0.441800
vt 0.154000 0.289900
vt 0.142900 0.289700
vt 0.166600 0.190800
vt 0.173200 0.167900
vt 0.162800 0.164600
vt 0.155900 0.187800
vt 0.160300 0.215800
vt 0.149400 0.213500
vt 0.156100 0.241100
vt 0.145100 0.239600
vt 0.154300 0.264400
vt 0.143200 0.263700
vt 0.096300 0.441100
vt 0.101900 0.441200
vt 0.101900 0.288900
vt 0.096400 0.288800
vt 0.116900 0.176600
vt 0.124500 0.151700
vt 0.119400 0.150100
vt 0.111700 0.175100
vt 0.109600 0.205000
vt 0.104200 0.203900
vt 0.104300 0.234300
vt 0.098900 0.233500
vt 0.102300 0.261000
vt 0.096800 0.260600
vt 0.053100 0.441000
vt 0.093600 0.441100
vt 0.093700 0.288700
vt 0.053100 0.288300
vt 0.070100 0.163400
vt 0.109100 0.174400
vt 0.116900 0.149300
vt 0.078200 0.136900
vt 0.101600 0.203300
vt 0.061900 0.195100
vt 0.056100 0.228100
vt 0.096300 0.233200
vt 0.094100 0.260400
vt 0.053600 0.258000
vt 0.182300 0.054100
vt 0.192500 0.090000
vt 0.147400 0.068600
vt 0.152600 0.070300
vt 0.117900 0.021700
vt 0.114800 0.030900
vt 0.128200 0.035400
vt 0.148400 0.064800
vt 0.146700 0.065500
vt 0.155300 0.068300
vt 0.154400 0.066700
vt 0.145200 0.067100
vt 0.203200 0.097300
vt 0.140400 0.263400
vt 0.140100 0.289600
vt 0.142300 0.239300
vt 0.146700 0.212900
vt 0.153300 0.187100
vt 0.160400 0.163600
vt 0.185000 0.092400
vt 0.182100 0.090500
vt 0.188800 0.090400
vt 0.186600 0.086000
vt 0.193000 0.085100
vt 0.195300 0.090900
vt 0.197700 0.086600
vt 0.198000 0.093400
vt 0.202200 0.091000
vt 0.199700 0.097200
vt 0.175800 0.168400
vt 0.169300 0.191400
vt 0.163100 0.216300
vt 0.159000 0.241400
vt 0.157200 0.264600
vt 0.156800 0.290000
vt 0.156800 0.441900
vt 0.148600 0.067700
vt 0.150800 0.067700
vt 0.151700 0.065000
vt 0.152500 0.068900
vt 0.155300 0.070500
vt 0.096300 0.445100
vt 0.093800 0.446700
vt 0.041700 0.429400
vt 0.050900 0.441000
vt 0.050800 0.288200
vt 0.041600 0.288100
vt 0.115300 0.022200
vt 0.106700 0.019400
vt 0.103800 0.027400
vt 0.112500 0.030300
vt 0.059000 0.160400
vt 0.067900 0.162800
vt 0.076000 0.136300
vt 0.067200 0.133500
vt 0.050700 0.192800
vt 0.059700 0.194700
vt 0.044800 0.226600
vt 0.053900 0.227800
vt 0.042100 0.257200
vt 0.051300 0.257800
vt 0.039300 0.429400
vt 0.039300 0.441000
vt 0.041700 0.441000
vt 0.036800 0.446700
vt 0.040000 0.446600
vt 0.036200 0.441100
vt 0.101700 0.445100
vt 0.052900 0.446700
vt 0.140000 0.441600
vt 0.136600 0.441500
vt 0.104100 0.446800
vt 0.041900 0.444900
vt 0.050900 0.444900
vt 0.111500 0.447000
vt 0.037100 0.451100
vt 0.111200 0.451400
vt 0.111200 0.456600
vt 0.037200 0.456400
vt 0.000000 1.000000
vt 0.000000 1.000000
vt 0.000000 1.000000
vt 0.000000 1.000000
vt 0.000000 1.000000
vt 0.000000 1.000000
vt 0.000000 1.000000
vt 0.000000 1.000000
vt 0.000000 1.000000
vt 0.000000 1.000000
vt 0.000000 1.000000
vt 0.000000 1.000000
vt 0.000000 1.000000
vt 0.000000 1.000000
vt 0.000000 1.000000
vt 0.000000 1.000000
vt 0.000000 1.000000
vt 0.000000 1.000000
vt 0.000000 1.000000
vt 0.000000 1.000000
vt 0.000000 1.000000
vt 0.000000 1.000000
vt 0.000000 1.000000
vt 0.000000 1.000000
vt 0.000000 1.000000
vt 0.000000 1.000000
vt 0.000000 1.000000
vt 0.000000 1.000000
vt 0.000000 1.000000
vt 0.000000 1.000000
vt 0.000000 1.000000
vt 0.000000 1.000000
vt 0.000000 1.000000
vt 0.000000 1.000000
vt 0.000000 1.000000
vt 0.000000 1.000000
vt 0.000000 1.000000
vt 0.000000 1.000000
vt 0.000000 1.000000
vt 0.009800 0.443000
vt 0.009500 0.441100
vt 0.007900 0.442800
vt 0.009500 0.575900
vt 0.009800 0.574000
vt 0.007700 0.574600
vt 0.000000 1.000000
vt 0.242300 0.074800
vt 0.030100 0.287500
vt 0.030000 0.428900
vt 0.009700 0.448900
vt 0.007700 0.448900
vt 0.029300 0.443000
vt 0.029200 0.441000
vt 0.056200 0.130300
vt 0.092800 0.023800
vt 0.048000 0.157500
vt 0.039700 0.190600
vt 0.033700 0.225100
vt 0.030800 0.256200
vt 0.009700 0.533300
vt 0.007700 0.532900
vt 0.009700 0.459900
vt 0.007700 0.459900
vt 0.000000 1.000000
vt 0.000000 1.000000
vt 0.245400 0.064900
vt 0.095800 0.014900
vt 0.074600 0.007800
vt 0.071600 0.016700
vt 0.263500 0.081700
vt 0.007600 0.287000
vt 0.007500 0.428700
vt 0.008500 0.254700
vt 0.034800 0.123600
vt 0.026400 0.151700
vt 0.017900 0.186100
vt 0.011600 0.222100
vt 0.029200 0.574000
vt 0.029300 0.533300
vt 0.029200 0.576100
vt 0.266700 0.071800
vt 0.029300 0.448900
vt 0.029300 0.459900
vn -0.382686 0.000703 0.923878
vn -0.382732 0.006241 0.923838
vn 0.000000 0.006364 0.999980
vn 0.000000 -0.000004 1.000000
vn -0.382859 0.196717 0.902619
vn -0.382779 0.248324 0.889840
vn 0.000000 0.268791 0.963198
vn 0.000000 0.212969 0.977059
vn -0.370616 0.285064 0.883958
vn 0.000000 0.306410 0.951899
vn -0.382973 0.118973 0.916066
vn 0.000000 0.128784 0.991673
vn -0.382907 0.043350 0.922769
vn 0.000000 0.046903 0.998899
vn -1.000000 0.000002 0.000001
vn -0.924150 0.000000 -0.382029
vn -0.924041 -0.003366 -0.382278
vn -0.924036 -0.124036 -0.361625
vn -0.854920 -0.466043 -0.227850
vn -0.862950 -0.477958 0.163931
vn -0.923926 -0.102124 -0.368688
vn -0.923971 -0.117138 -0.364083
vn -0.924024 -0.079905 -0.373890
vn -0.924045 -0.049070 -0.379121
vn -0.923974 -0.019535 -0.381956
vn -0.998333 0.057709 0.000000
vn -0.996243 0.086600 0.000000
vn -0.923899 0.002797 0.382626
vn -0.923881 0.000720 0.382680
vn -0.845937 -0.213391 0.488728
vn -0.942118 0.109298 0.316966
vn -0.954438 -0.282079 0.097360
vn -0.918874 0.121374 0.375418
vn -0.923919 0.102840 0.368506
vn -0.923952 0.081437 0.373738
vn -0.923999 0.049254 0.379210
vn -0.923972 0.017960 0.382038
vn -0.968127 0.000000 0.250461
vn -0.968138 0.001778 0.250412
vn -0.968211 -0.001764 -0.250127
vn -0.968225 0.000000 -0.250082
vn -0.968190 -0.067096 -0.241051
vn -0.968220 0.067074 0.240938
vn -0.980274 0.060592 0.188126
vn -0.986396 -0.050256 -0.156518
vn -0.968231 -0.052966 -0.244385
vn -0.968266 0.052830 0.244274
vn -0.968270 -0.032164 -0.247827
vn -0.968273 0.032131 0.247821
vn -0.968232 -0.012021 -0.249763
vn -0.968208 0.012117 0.249852
vn -0.940040 0.102782 0.325208
vn -0.948700 0.002497 0.316169
vn -0.948781 -0.002486 -0.315924
vn -0.940058 0.102940 -0.325105
vn -0.948759 -0.084562 -0.304477
vn -0.948671 0.084631 0.304730
vn -0.948719 0.096840 0.300922
vn -0.948793 -0.096762 -0.300713
vn -0.948781 -0.066470 -0.308863
vn -0.948700 0.066472 0.309112
vn -0.948789 -0.040596 -0.313292
vn -0.948758 0.040595 0.313384
vn -0.948795 -0.015656 -0.315505
vn -0.948758 0.015688 0.315615
vn -0.996243 0.086600 0.000000
vn -0.831675 0.449244 0.326338
vn -0.926016 0.375418 -0.039452
vn -0.950681 0.167538 0.261030
vn -0.951853 -0.035901 -0.304445
vn -0.923124 -0.363714 0.124718
vn -0.725748 0.033326 0.687153
vn -0.725507 0.004893 0.688197
vn -0.530312 0.006033 0.847781
vn -0.530397 0.041068 0.846754
vn -0.726097 0.088381 0.681889
vn -0.530793 0.108916 0.840474
vn -0.726036 0.145350 0.672120
vn -0.530707 0.179139 0.828407
vn -0.725785 0.184507 0.662717
vn -0.530428 0.227379 0.816667
vn -0.727666 0.210191 0.652933
vn -0.530317 0.259724 0.807036
vn -0.675158 0.355261 0.646492
vn -0.539474 0.441026 0.717261
vn -0.552799 0.747775 0.367759
vn -0.539341 0.837476 -0.088008
vn -0.879725 0.406151 -0.247236
vn -0.539695 0.719105 -0.437741
vn -0.832088 0.155922 -0.532277
vn -0.553455 0.367754 -0.747292
vn -0.539438 -0.091538 -0.837035
vn -0.675066 -0.116046 -0.728573
vn -0.727446 -0.210045 -0.653225
vn -0.529942 -0.259788 -0.807262
vn -0.725519 -0.184552 -0.662995
vn -0.529974 -0.227414 -0.816952
vn -0.725652 -0.145753 -0.672447
vn -0.530004 -0.179642 -0.828749
vn -0.725908 -0.088508 -0.682073
vn -0.530342 -0.109087 -0.840736
vn -0.725811 -0.033048 -0.687100
vn -0.530390 -0.040713 -0.846775
vn -0.725517 -0.004867 -0.688187
vn -0.529835 -0.006007 -0.848079
vn -0.529523 0.000000 -0.848296
vn -0.725426 0.000000 -0.688301
vn -0.800060 0.004738 0.599901
vn -0.800241 0.029770 0.598939
vn -0.800211 0.077042 0.594749
vn -0.800011 0.126139 0.586577
vn -0.799939 0.160579 0.578198
vn -0.800123 0.183754 0.570998
vn -0.809757 0.341486 0.477160
vn -0.813165 0.463840 0.351590
vn -0.919383 0.342795 0.192941
vn -0.813657 0.568293 0.122495
vn -0.918911 0.373708 -0.126273
vn -0.821449 0.540274 -0.182554
vn -0.935549 0.169989 -0.309599
vn -0.814122 0.376267 -0.442298
vn -0.808537 0.162456 -0.565576
vn -0.810514 -0.068594 -0.581689
vn -0.800404 -0.183619 -0.570646
vn -0.800270 -0.160463 -0.577771
vn -0.800319 -0.126145 -0.586154
vn -0.800326 -0.077047 -0.594594
vn -0.800382 -0.029712 -0.598754
vn -0.800369 -0.004718 -0.599489
vn -0.785572 0.077688 -0.613874
vn -0.956777 -0.148825 0.249859
vn -0.852585 -0.363536 0.375420
vn -0.785475 0.077382 0.614036
vn -0.923881 0.000000 0.382681
vn -0.923907 0.003324 0.382604
vn -0.923907 -0.003293 -0.382603
vn -0.946543 0.080129 -0.312467
vn -0.881601 0.256692 -0.396093
vn -0.923938 -0.124075 -0.361862
vn -0.923942 0.124070 0.361853
vn -0.881750 0.445568 0.154875
vn -0.924104 0.102064 0.368259
vn -0.923993 0.117144 0.364026
vn -0.924035 -0.117112 -0.363928
vn -0.923974 -0.102146 -0.368562
vn -0.924162 0.079875 0.373558
vn -0.924030 -0.080026 -0.373851
vn -0.924080 0.049044 0.379041
vn -0.924148 -0.049056 -0.378873
vn -0.923986 0.019468 0.381930
vn -0.924052 -0.019379 -0.381776
vn -0.705686 0.669248 0.232625
vn -0.705367 0.385499 -0.594851
vn -0.707656 -0.216440 -0.672590
vn -0.707421 -0.188770 -0.681118
vn -0.707559 -0.147915 -0.691001
vn -0.707954 -0.090689 -0.700412
vn -0.707661 -0.035818 -0.705644
vn -0.707203 -0.006084 -0.706985
vn -0.690732 0.068007 -0.719906
vn -0.716239 0.000000 0.697855
vn -0.914465 0.100518 0.391982
vn -0.690722 0.068006 0.719915
vn -0.707201 0.006141 0.706986
vn -0.707418 0.035981 0.705879
vn -0.707703 0.090660 0.700669
vn -0.708045 0.147657 0.690557
vn -0.707902 0.188644 0.680653
vn -0.707498 0.216489 0.672740
vn -0.707339 0.229266 0.668662
vn -0.946649 0.322267 0.000000
vn -0.996243 0.086600 0.000000
vn -0.928642 0.370977 0.000000
vn -0.956800 -0.148600 -0.249904
vn -0.928642 0.370977 0.000000
vn -0.928642 0.370977 0.000000
vn -0.530471 0.000000 0.847703
vn -0.852658 -0.363251 -0.375530
vn -0.940777 -0.160025 0.298883
vn -0.940778 -0.160024 -0.298878
vn -0.809527 -0.381382 -0.446333
vn -0.928642 0.370977 0.000000
vn -0.809523 -0.381384 0.446340
vn -0.817876 0.575395 0.000000
vn -0.782902 0.622145 0.000000
vn -0.529016 0.848612 0.000000
vn 0.998938 -0.045943 0.003544
vn 0.999966 -0.004212 0.007069
vn 0.998545 -0.018459 -0.050663
vn 0.999357 -0.012030 -0.033774
vn 0.922426 -0.003008 -0.386163
vn 0.999914 -0.000064 0.013104
vn 0.882497 -0.000042 0.470318
vn 0.861917 -0.003751 -0.507036
vn 0.557492 -0.000016 0.830182
vn 0.485917 -0.006410 -0.873981
vn 0.999805 0.008001 0.018063
vn 0.950082 -0.311999 0.000000
vn 0.732370 -0.680907 0.000000
vn 0.506252 -0.862386 0.000000
vn -0.000000 1.000000 0.000007
vn -0.000158 -0.000952 1.000000
vn -0.000079 -0.000476 1.000000
vn 0.000000 0.000003 -1.000000
vn 0.000000 -0.000000 1.000000
vn 0.849029 0.528347 0.000000
vn 0.996142 -0.087753 0.000000
vn 0.995046 -0.020455 -0.097288
vn -0.367095 -0.927559 -0.069832
vn -0.367295 -0.624597 -0.689183
vn -0.338983 -0.061640 0.938771
vn -0.377408 -0.683327 0.625002
vn -0.343575 0.305352 0.888097
vn -0.383338 0.000000 -0.923608
vn -0.383074 -0.008165 -0.923682
vn -0.382808 -0.873858 0.299719
vn 0.000000 -0.998061 -0.062248
vn 0.000000 -0.661940 -0.749556
vn -0.382904 -0.282934 -0.879394
vn -0.383061 -0.299750 -0.873736
vn -0.382796 -0.246615 -0.890308
vn -0.383034 -0.193051 -0.903336
vn -0.383084 -0.118556 -0.916074
vn -0.382911 -0.047199 -0.922579
vn -0.390965 -0.870395 0.299263
vn -0.380859 -0.874612 0.300002
vn 0.372952 -0.003032 -0.927846
vn -0.707322 -0.229275 -0.668676
vn 0.000000 -0.324545 -0.945870
vn 0.000000 0.324501 0.945885
vn 0.000000 -0.008864 -0.999961
vn 0.000000 -0.051103 -0.998693
vn 0.000000 -0.306279 -0.951942
vn 0.000000 -0.266952 -0.963710
vn 0.000000 -0.128338 -0.991731
vn 0.000000 -0.208989 -0.977918
vn 0.000000 -0.945907 0.324439
vn 0.000000 -0.749687 0.661792
vn 0.000000 -0.062130 0.998068
vn 0.000000 -0.000170 -1.000000
vn 0.000000 -0.001580 0.999999
vn 0.382686 0.000703 0.923878
vn 0.382732 0.006241 0.923838
vn 0.382859 0.196717 0.902619
vn 0.382779 0.248324 0.889840
vn 0.370616 0.285064 0.883958
vn 0.382973 0.118973 0.916066
vn 0.382907 0.043350 0.922769
vn 1.000000 0.000002 0.000000
vn 0.924041 -0.003366 -0.382278
vn 0.924150 0.000000 -0.382029
vn 0.862950 -0.477958 0.163931
vn 0.854920 -0.466043 -0.227850
vn 0.924036 -0.124036 -0.361625
vn 0.923926 -0.102124 -0.368688
vn 0.923971 -0.117138 -0.364083
vn 0.924024 -0.079905 -0.373890
vn 0.924045 -0.049070 -0.379121
vn 0.923974 -0.019535 -0.381956
vn 0.996243 0.086600 0.000000
vn 0.998333 0.057709 0.000000
vn 0.923881 0.000720 0.382680
vn 0.923899 0.002797 0.382626
vn 0.845937 -0.213391 0.488728
vn 0.954438 -0.282079 0.097360
vn 0.942118 0.109298 0.316966
vn 0.923919 0.102840 0.368506
vn 0.918874 0.121374 0.375418
vn 0.923952 0.081437 0.373738
vn 0.923999 0.049254 0.379210
vn 0.923972 0.017960 0.382038
vn 0.968127 0.000000 0.250461
vn 0.968225 0.000000 -0.250082
vn 0.968211 -0.001764 -0.250127
vn 0.968138 0.001778 0.250412
vn 0.968190 -0.067096 -0.241051
vn 0.986396 -0.050256 -0.156518
vn 0.980274 0.060592 0.188126
vn 0.968220 0.067074 0.240938
vn 0.968231 -0.052966 -0.244385
vn 0.968266 0.052830 0.244274
vn 0.968270 -0.032164 -0.247827
vn 0.968273 0.032131 0.247821
vn 0.968232 -0.012021 -0.249764
vn 0.968208 0.012117 0.249852
vn 0.940040 0.102782 0.325208
vn 0.940058 0.102940 -0.325105
vn 0.948781 -0.002486 -0.315924
vn 0.948700 0.002497 0.316169
vn 0.948759 -0.084562 -0.304477
vn 0.948793 -0.096762 -0.300713
vn 0.948719 0.096840 0.300922
vn 0.948671 0.084631 0.304730
vn 0.948781 -0.066470 -0.308863
vn 0.948700 0.066472 0.309112
vn 0.948789 -0.040596 -0.313292
vn 0.948758 0.040595 0.313384
vn 0.948795 -0.015656 -0.315505
vn 0.948758 0.015688 0.315615
vn 0.996243 0.086600 0.000000
vn 0.926016 0.375418 -0.039452
vn 0.950681 0.167538 0.261030
vn 0.951853 -0.035901 -0.304445
vn 0.923124 -0.363714 0.124718
vn 0.725748 0.033326 0.687153
vn 0.530397 0.041068 0.846754
vn 0.530312 0.006033 0.847781
vn 0.725507 0.004893 0.688197
vn 0.726097 0.088381 0.681889
vn 0.530793 0.108916 0.840474
vn 0.726036 0.145350 0.672120
vn 0.530707 0.179139 0.828407
vn 0.725785 0.184507 0.662717
vn 0.530428 0.227379 0.816667
vn 0.727666 0.210191 0.652933
vn 0.530317 0.259724 0.807036
vn 0.675158 0.355261 0.646492
vn 0.539474 0.441026 0.717261
vn 0.831675 0.449244 0.326338
vn 0.552799 0.747775 0.367759
vn 0.539341 0.837476 -0.088008
vn 0.879725 0.406151 -0.247236
vn 0.539695 0.719105 -0.437741
vn 0.832088 0.155922 -0.532277
vn 0.553455 0.367754 -0.747292
vn 0.539438 -0.091538 -0.837035
vn 0.675066 -0.116046 -0.728573
vn 0.727446 -0.210045 -0.653225
vn 0.529942 -0.259788 -0.807262
vn 0.725519 -0.184552 -0.662995
vn 0.529974 -0.227414 -0.816952
vn 0.725652 -0.145753 -0.672447
vn 0.530004 -0.179642 -0.828749
vn 0.725908 -0.088508 -0.682073
vn 0.530342 -0.109087 -0.840736
vn 0.725811 -0.033048 -0.687100
vn 0.530390 -0.040713 -0.846776
vn 0.725517 -0.004867 -0.688187
vn 0.529835 -0.006007 -0.848079
vn 0.725426 0.000000 -0.688301
vn 0.529523 0.000000 -0.848296
vn 0.800241 0.029770 0.598940
vn 0.800060 0.004738 0.599902
vn 0.800211 0.077042 0.594749
vn 0.800011 0.126139 0.586577
vn 0.799939 0.160579 0.578198
vn 0.800123 0.183754 0.570998
vn 0.809757 0.341486 0.477160
vn 0.919383 0.342795 0.192941
vn 0.813165 0.463840 0.351590
vn 0.813657 0.568293 0.122495
vn 0.918911 0.373708 -0.126273
vn 0.821449 0.540274 -0.182554
vn 0.935549 0.169989 -0.309599
vn 0.814122 0.376267 -0.442298
vn 0.808537 0.162456 -0.565576
vn 0.810514 -0.068594 -0.581689
vn 0.800404 -0.183619 -0.570646
vn 0.800270 -0.160463 -0.577771
vn 0.800319 -0.126145 -0.586154
vn 0.800326 -0.077047 -0.594594
vn 0.800382 -0.029712 -0.598754
vn 0.800369 -0.004718 -0.599489
vn 0.785572 0.077688 -0.613874
vn 0.956777 -0.148825 0.249859
vn 0.785475 0.077382 0.614036
vn 0.852585 -0.363536 0.375420
vn 0.923881 0.000000 0.382681
vn 0.946543 0.080129 -0.312467
vn 0.923907 -0.003293 -0.382603
vn 0.923907 0.003324 0.382604
vn 0.881601 0.256692 -0.396093
vn 0.881750 0.445568 0.154875
vn 0.923942 0.124070 0.361853
vn 0.923938 -0.124075 -0.361862
vn 0.924104 0.102064 0.368259
vn 0.923974 -0.102146 -0.368562
vn 0.924035 -0.117112 -0.363928
vn 0.923993 0.117144 0.364026
vn 0.924162 0.079875 0.373558
vn 0.924030 -0.080026 -0.373851
vn 0.924080 0.049044 0.379041
vn 0.924148 -0.049056 -0.378873
vn 0.923986 0.019468 0.381930
vn 0.924052 -0.019379 -0.381776
vn 0.705367 0.385499 -0.594851
vn 0.705686 0.669248 0.232625
vn 0.707421 -0.188770 -0.681118
vn 0.707656 -0.216440 -0.672590
vn 0.707559 -0.147915 -0.691001
vn 0.707954 -0.090689 -0.700412
vn 0.707661 -0.035818 -0.705644
vn 0.707203 -0.006084 -0.706985
vn 0.690732 0.068007 -0.719906
vn 0.716239 0.000000 0.697855
vn 0.690722 0.068006 0.719915
vn 0.914465 0.100518 0.391982
vn 0.707418 0.035981 0.705879
vn 0.707201 0.006141 0.706986
vn 0.707703 0.090660 0.700669
vn 0.708045 0.147657 0.690557
vn 0.707902 0.188644 0.680653
vn 0.707498 0.216489 0.672740
vn 0.707339 0.229266 0.668662
vn 0.946649 0.322267 0.000000
vn 0.928642 0.370977 0.000000
vn 0.996243 0.086600 0.000000
vn 0.956800 -0.148600 -0.249904
vn 0.928642 0.370977 0.000000
vn 0.928642 0.370977 0.000000
vn 0.530471 0.000000 0.847703
vn 0.852658 -0.363251 -0.375530
vn 0.940777 -0.160025 0.298883
vn 0.940778 -0.160024 -0.298878
vn 0.809527 -0.381382 -0.446333
vn 0.928642 0.370977 0.000000
vn 0.809523 -0.381384 0.446340
vn 0.817876 0.575395 0.000000
vn 0.766419 0.642341 -0.000264
vn 0.529016 0.848612 0.000000
vn -0.998938 -0.045943 0.003544
vn -0.999357 -0.012030 -0.033774
vn -0.998545 -0.018459 -0.050663
vn -0.999966 -0.004212 0.007069
vn -0.922426 -0.003008 -0.386163
vn -0.999914 -0.000064 0.013104
vn -0.882497 -0.000042 0.470318
vn -0.861917 -0.003751 -0.507036
vn -0.557492 -0.000016 0.830182
vn -0.485917 -0.006410 -0.873981
vn -0.999805 0.008001 0.018063
vn -0.950082 -0.311999 0.000000
vn -0.732370 -0.680907 0.000000
vn -0.506252 -0.862386 0.000000
vn 0.000158 -0.000952 1.000000
vn 0.000079 -0.000476 1.000000
vn -0.849029 0.528347 0.000000
vn -0.996142 -0.087753 0.000000
vn -0.995046 -0.020455 -0.097288
vn 0.367095 -0.927559 -0.069832
vn 0.367295 -0.624597 -0.689183
vn 0.338983 -0.061640 0.938771
vn 0.377408 -0.683327 0.625002
vn 0.343575 0.305352 0.888097
vn 0.383074 -0.008165 -0.923682
vn 0.383338 0.000000 -0.923608
vn 0.382808 -0.873858 0.299719
vn 0.382904 -0.282934 -0.879394
vn 0.383061 -0.299750 -0.873736
vn 0.382796 -0.246615 -0.890308
vn 0.383034 -0.193051 -0.903336
vn 0.383084 -0.118556 -0.916074
vn 0.382911 -0.047199 -0.922579
vn 0.390965 -0.870395 0.299263
vn 0.380859 -0.874612 0.300002
vn -0.372952 -0.003032 -0.927846
vn 0.707323 -0.229275 -0.668676
usemtl default
f 1/1/1 2/2/2 3/3/3 4/4/4
f 5/5/5 6/6/6 7/7/7 8/8/8
f 6/6/6 9/9/9 10/10/10 7/7/7
f 11/11/11 5/5/5 8/8/8 12/12/12
f 3/3/3 2/2/2 13/13/13 14/14/14
f 15/15/15 16/16/15 17/17/16 18/18/17
f 19/19/15 20/20/18 21/21/19 22/22/20
f 23/23/21 24/24/22 25/25/15 26/26/15
f 27/27/23 23/23/21 26/26/15 28/28/15
f 29/29/24 27/27/23 28/28/15 30/30/15
f 31/31/25 29/29/24 30/30/15 32/32/15
f 18/18/17 31/31/25 32/32/15 15/15/15
f 33/33/15 34/34/26 35/35/27
f 36/36/15 37/37/15 38/38/15 39/39/15
f 40/40/15 41/41/15 36/36/15 39/39/15
f 42/42/15 41/41/15 40/40/15 43/43/15
f 44/44/15 45/45/15 42/42/15 43/43/15
f 33/33/15 45/45/15 44/44/15 46/46/15
f 47/47/15 48/48/15 49/49/28 50/50/29
f 51/51/30 52/52/31 53/53/15 54/54/32
f 55/55/15 56/56/15 57/57/33 58/58/34
f 59/59/35 60/60/15 55/55/15 58/58/34
f 61/61/15 60/60/15 59/59/35 62/62/36
f 63/63/37 64/64/15 61/61/15 62/62/36
f 48/48/15 64/64/15 63/63/37 49/49/28
f 65/65/38 66/66/39 67/67/40 68/68/41
f 69/69/42 70/70/43 71/71/44 72/72/45
f 73/73/46 74/74/47 70/70/43 69/69/42
f 75/75/48 76/76/49 74/74/47 73/73/46
f 77/77/50 78/78/51 76/76/49 75/75/48
f 67/67/40 66/66/39 78/78/51 77/77/50
f 79/79/52 80/80/53 81/81/54 82/82/55
f 83/83/56 84/84/57 85/85/58 86/86/59
f 87/87/60 88/88/61 84/84/57 83/83/56
f 89/89/62 90/90/63 88/88/61 87/87/60
f 91/91/64 92/92/65 90/90/63 89/89/62
f 81/81/54 80/80/53 92/92/65 91/91/64
f 93/93/66 94/94/15 95/95/15 96/96/66
f 97/97/15 98/98/15 99/99/15 100/100/15
f 101/101/15 102/102/15 97/97/15 100/100/15
f 103/103/15 102/102/15 101/101/15 104/104/15
f 105/105/15 106/106/15 103/103/15 104/104/15
f 94/94/15 106/106/15 105/105/15 95/95/15
f 54/54/32 53/53/15 107/107/15
f 71/71/44 108/108/67 109/109/68
f 110/110/69 111/111/70 86/86/59 85/85/58
f 112/112/71 113/113/15 114/114/15
f 115/115/15 116/116/15 113/113/15
f 117/117/15 118/118/15 107/107/15
f 119/119/15 113/113/15 116/116/15
f 57/57/33 56/56/15 120/120/15 52/52/31
f 121/121/72 122/122/73 46/46/74 44/44/75
f 123/123/76 121/121/72 44/44/75 43/43/77
f 124/124/78 123/123/76 43/43/77 40/40/79
f 125/125/80 124/124/78 40/40/79 39/39/81
f 126/126/82 125/125/80 39/39/81 38/38/83
f 127/127/84 126/126/82 38/38/83 128/128/85
f 128/128/85 129/129/86 108/108/67 127/127/84
f 109/109/68 108/108/67 129/129/86 130/130/87
f 131/131/88 109/109/68 130/130/87 132/132/89
f 133/133/90 131/131/88 132/132/89 134/134/91
f 120/120/92 135/135/93 133/133/90 134/134/91
f 136/136/94 135/135/93 120/120/92 56/56/95
f 137/137/96 136/136/94 56/56/95 55/55/97
f 138/138/98 137/137/96 55/55/97 60/60/99
f 139/139/100 138/138/98 60/60/99 61/61/101
f 140/140/102 139/139/100 61/61/101 64/64/103
f 141/141/104 140/140/102 64/64/103 48/48/105
f 141/141/104 48/48/105 47/47/106 142/142/107
f 92/92/65 80/80/53 95/95/108 105/105/109
f 90/90/63 92/92/65 105/105/109 104/104/110
f 88/88/61 90/90/63 104/104/110 101/101/111
f 84/84/57 88/88/61 101/101/111 100/100/112
f 85/85/58 84/84/57 100/100/112 99/99/113
f 110/110/69 85/85/58 99/99/113 119/119/114
f 119/119/114 116/116/115 143/143/116
f 116/116/115 115/115/117 143/143/116
f 144/144/118 143/143/116 115/115/117 145/145/119
f 146/146/120 144/144/118 145/145/119 118/118/121
f 118/118/121 117/117/122 146/146/120
f 111/111/70 146/146/120 117/117/122 147/147/123
f 86/86/59 111/111/70 147/147/123 37/37/124
f 83/83/56 86/86/59 37/37/124 36/36/125
f 87/87/60 83/83/56 36/36/125 41/41/126
f 89/89/62 87/87/60 41/41/126 42/42/127
f 91/91/64 89/89/62 42/42/127 45/45/128
f 81/81/54 91/91/64 45/45/128 33/33/129
f 81/81/54 33/33/129 35/35/130 82/82/55
f 148/148/131 149/149/132 96/96/133 79/79/52
f 150/150/134 151/151/135 152/152/136 153/153/137
f 154/154/138 155/155/139 156/156/140 157/157/141
f 158/158/142 159/159/143 160/160/144 161/161/145
f 162/162/146 158/158/142 161/161/145 163/163/147
f 164/164/148 162/162/146 163/163/147 165/165/149
f 166/166/150 164/164/148 165/165/149 167/167/151
f 151/151/135 166/166/150 167/167/151 152/152/136
f 154/154/138 157/157/141 22/22/152 112/112/153
f 161/161/145 160/160/144 98/98/154 97/97/155
f 163/163/147 161/161/145 97/97/155 102/102/156
f 165/165/149 163/163/147 102/102/156 103/103/157
f 167/167/151 165/165/149 103/103/157 106/106/158
f 152/152/136 167/167/151 106/106/158 94/94/159
f 152/152/136 94/94/159 93/93/160 153/153/137
f 168/168/161 150/150/134 169/169/162 170/170/163
f 166/166/150 151/151/135 15/15/164 32/32/165
f 164/164/148 166/166/150 32/32/165 30/30/166
f 162/162/146 164/164/148 30/30/166 28/28/167
f 158/158/142 162/162/146 28/28/167 26/26/168
f 159/159/143 158/158/142 26/26/168 25/25/169
f 25/25/169 19/19/170 156/156/140 159/159/143
f 171/171/171 172/172/172 170/170/172 173/173/173
f 79/79/52 82/82/55 174/174/174 148/148/131
f 93/93/66 96/96/66 149/149/175 175/175/176
f 176/176/161 177/177/177 46/46/74 122/122/73
f 82/82/55 35/35/130 178/178/178 174/174/174
f 79/79/52 96/96/133 95/95/108 80/80/53
f 179/179/179 169/169/162 153/153/137 180/180/180
f 153/153/137 93/93/160 175/175/181 180/180/180
f 150/150/134 168/168/161 15/15/164 151/151/135
f 34/34/26 181/181/171 178/178/182 35/35/27
f 34/34/26 33/33/15 46/46/15 177/177/15
f 175/175/181 173/173/183 179/179/179 180/180/180
f 178/178/178 149/149/132 148/148/131 174/174/174
f 173/173/173 182/182/184 171/171/171
f 181/181/171 183/183/185 178/178/182
f 184/184/186 185/185/186 182/182/184 183/183/185
f 186/186/187 187/187/188 188/188/189 189/189/190
f 190/190/191 191/191/192 192/192/192 193/193/191
f 194/194/193 195/195/194 196/196/194 197/197/193
f 192/192/195 191/191/195 194/194/193 197/197/193
f 187/187/196 198/198/196 196/196/194 195/195/194
f 186/186/187 198/198/197 187/187/188
f 199/199/198 200/200/198 201/201/199 202/202/199
f 201/201/199 203/203/200 204/204/200 202/202/199
f 193/193/201 192/192/201 47/205/201 50/206/201
f 65/207/201 68/208/201 197/197/201 196/196/201
f 142/209/201 47/205/201 192/192/201 197/197/201
f 205/210/201 17/211/201 16/212/201 189/189/201
f 177/213/201 176/214/201 196/196/201 198/198/201
f 186/186/202 199/199/203 181/215/203 34/216/202
f 198/198/201 186/186/201 34/216/201 177/213/201
f 201/201/204 200/200/204 171/217/204 182/218/204
f 199/199/203 202/202/205 183/219/205 181/215/203
f 203/203/204 201/201/204 182/218/204 185/220/204
f 204/204/206 203/203/206 185/220/206 184/221/206
f 202/202/205 204/204/205 184/221/205 183/219/205
f 183/183/185 149/149/175 178/178/182
f 173/173/173 175/175/176 182/182/184
f 183/183/185 182/182/184 175/175/176 149/149/175
f 194/194/201 206/222/201 207/223/201
f 187/187/201 195/195/201 208/224/201 188/188/201
f 195/195/201 194/194/201 207/223/201 208/224/201
f 65/207/201 196/196/201 176/214/201
f 142/209/201 197/197/201 68/208/201
f 67/67/40 141/141/104 142/142/107 68/68/41
f 65/65/38 176/176/161 122/122/73 66/66/39
f 72/72/45 136/136/94 137/137/96 69/69/42
f 70/70/43 125/125/80 126/126/82 71/71/44
f 69/69/42 137/137/96 138/138/98 73/73/46
f 74/74/47 124/124/78 125/125/80 70/70/43
f 73/73/46 138/138/98 139/139/100 75/75/48
f 76/76/49 123/123/76 124/124/78 74/74/47
f 75/75/48 139/139/100 140/140/102 77/77/50
f 78/78/51 121/121/72 123/123/76 76/76/49
f 77/77/50 140/140/102 141/141/104 67/67/40
f 66/66/39 122/122/73 121/121/72 78/78/51
f 71/71/44 126/126/82 127/127/84 108/108/67
f 133/133/90 135/135/93 136/136/94 72/72/45
f 189/189/190 209/225/207 186/186/187
f 172/226/204 209/225/204 189/189/204 16/212/204
f 15/15/15 168/168/15 16/16/15
f 188/188/189 205/210/208 189/189/190
f 210/227/209 21/228/19 211/229/210
f 212/230/211 51/231/30 213/232/212
f 17/211/201 205/210/201 214/233/201
f 1/1/1 50/50/29 49/49/28 2/2/2
f 2/2/2 49/49/28 63/63/37 13/13/13
f 13/13/13 63/63/37 62/62/36 11/11/11
f 9/9/9 57/57/33 52/52/31 215/234/213
f 5/5/5 59/59/35 58/58/34 6/6/6
f 6/6/6 58/58/34 57/57/33 9/9/9
f 11/11/11 62/62/36 59/59/35 5/5/5
f 17/17/16 214/235/214 216/236/215 18/18/17
f 217/237/216 22/238/20 21/228/19 210/227/209
f 218/239/217 210/227/209 211/229/210 219/240/218
f 220/241/219 221/242/220 20/20/18 24/24/22
f 23/23/21 222/243/221 220/241/219 24/24/22
f 27/27/23 223/244/222 222/243/221 23/23/21
f 29/29/24 224/245/223 223/244/222 27/27/23
f 31/31/25 225/246/224 224/245/223 29/29/24
f 18/18/17 216/236/215 225/246/224 31/31/25
f 213/232/212 51/231/30 54/247/32 226/248/225
f 54/247/32 112/249/71 227/250/226 226/248/225
f 227/250/226 112/249/71 22/238/20 217/237/216
f 206/222/227 190/190/191 193/193/191 228/251/227
f 228/251/201 193/193/201 50/206/201 1/252/201
f 191/191/201 190/190/201 206/222/201 194/194/201
f 114/114/228 155/155/139 154/154/138 112/112/153
f 128/128/15 38/38/15 37/37/15 147/147/15
f 129/129/15 128/128/15 147/147/15
f 143/143/116 110/110/69 119/119/114
f 25/25/15 24/24/22 20/20/18 19/19/15
f 120/120/15 134/134/15 53/53/15 52/52/31
f 53/53/15 132/132/15 130/130/15
f 107/107/15 145/145/15 113/113/15
f 53/53/15 130/130/15 129/129/15 107/107/15
f 114/114/15 113/113/15 119/119/15 98/98/15
f 113/113/15 145/145/15 115/115/15
f 107/107/15 118/118/15 145/145/15
f 53/53/15 134/134/15 132/132/15
f 160/160/144 159/159/143 156/156/140 155/155/139
f 98/98/154 160/160/144 155/155/139 114/114/228
f 112/112/71 54/54/32 107/107/15 113/113/15
f 51/51/30 212/253/211 215/234/213 52/52/31
f 211/254/210 221/242/220 229/255/229 219/256/218
f 19/19/170 22/22/152 157/157/141 156/156/140
f 211/254/210 21/21/19 20/20/18 221/242/220
f 179/179/179 173/173/183 170/170/163 169/169/162
f 16/16/15 168/168/15 170/170/172 172/172/172
f 172/226/204 171/217/204 200/200/204 209/225/204
f 169/169/162 150/150/134 153/153/137
f 200/200/198 199/199/198 186/186/187 209/225/207
f 110/110/69 143/143/116 146/146/120 111/111/70
f 143/143/116 144/144/118 146/146/120
f 215/234/213 230/257/230 10/10/10 9/9/9
f 214/235/214 231/258/204 232/259/231 216/236/215
f 216/236/215 232/259/231 233/260/232 225/246/224
f 220/241/219 234/261/233 229/255/229 221/242/220
f 222/243/221 235/262/234 234/261/233 220/241/219
f 224/245/223 236/263/235 237/264/236 223/244/222
f 223/244/222 237/264/236 235/262/234 222/243/221
f 225/246/224 233/260/232 236/263/235 224/245/223
f 226/248/225 238/265/237 239/266/238 213/232/212
f 4/267/201 240/268/201 228/251/201 1/252/201
f 205/210/201 241/269/201 231/270/201 214/233/201
f 213/232/212 239/266/238 242/271/239 212/230/211
f 212/253/211 242/272/239 230/257/230 215/234/213
f 11/11/11 12/12/12 14/14/14 13/13/13
f 210/227/209 218/239/217 243/273/237 217/237/216
f 227/250/226 244/274/237 238/265/237 226/248/225
f 217/237/216 243/273/237 244/274/237 227/250/226
f 228/251/227 240/268/240 207/223/240 206/222/227
f 208/224/241 241/269/241 205/210/241 188/188/241
f 245/275/242 4/276/4 3/277/3 246/278/243
f 247/279/244 8/280/8 7/281/7 248/282/245
f 248/282/245 7/281/7 10/283/10 249/284/246
f 250/285/247 12/286/12 8/280/8 247/279/244
f 3/277/3 14/287/14 251/288/248 246/278/243
f 252/289/249 253/290/250 254/291/251 255/292/249
f 256/293/249 257/294/252 258/295/253 259/296/254
f 260/297/255 261/298/249 262/299/249 263/300/256
f 264/301/257 265/302/249 261/298/249 260/297/255
f 266/303/258 267/304/249 265/302/249 264/301/257
f 268/305/259 269/306/249 267/304/249 266/303/258
f 253/290/250 252/289/249 269/306/249 268/305/259
f 270/307/249 271/308/260 272/309/261
f 273/310/249 274/311/249 275/312/249 276/313/249
f 277/314/249 274/311/249 273/310/249 278/315/249
f 279/316/249 280/317/249 277/314/249 278/315/249
f 281/318/249 280/317/249 279/316/249 282/319/249
f 270/307/249 283/320/249 281/318/249 282/319/249
f 284/321/249 285/322/262 286/323/263 287/324/249
f 288/325/264 289/326/265 290/327/249 291/328/266
f 292/329/249 293/330/267 294/331/268 295/332/249
f 296/333/269 293/330/267 292/329/249 297/334/249
f 298/335/249 299/336/270 296/333/269 297/334/249
f 300/337/271 299/336/270 298/335/249 301/338/249
f 287/324/249 286/323/263 300/337/271 301/338/249
f 302/339/272 303/340/273 304/341/274 305/342/275
f 306/343/276 307/344/277 308/345/278 309/346/279
f 310/347/280 306/343/276 309/346/279 311/348/281
f 312/349/282 310/347/280 311/348/281 313/350/283
f 314/351/284 312/349/282 313/350/283 315/352/285
f 304/341/274 314/351/284 315/352/285 305/342/275
f 316/353/286 317/354/287 318/355/288 319/356/289
f 320/357/290 321/358/291 322/359/292 323/360/293
f 324/361/294 320/357/290 323/360/293 325/362/295
f 326/363/296 324/361/294 325/362/295 327/364/297
f 328/365/298 326/363/296 327/364/297 329/366/299
f 318/355/288 328/365/298 329/366/299 319/356/289
f 330/367/300 331/368/300 332/369/249 333/370/249
f 334/371/249 335/372/249 336/373/249 337/374/249
f 338/375/249 335/372/249 334/371/249 339/376/249
f 340/377/249 341/378/249 338/375/249 339/376/249
f 342/379/249 341/378/249 340/377/249 343/380/249
f 333/370/249 332/369/249 342/379/249 343/380/249
f 289/326/265 344/381/249 290/327/249
f 308/345/278 307/344/277 345/382/301
f 346/383/302 322/359/292 321/358/291 347/384/303
f 348/385/304 349/386/249 350/387/249
f 351/388/249 350/387/249 352/389/249
f 353/390/249 344/381/249 354/391/249
f 355/392/249 352/389/249 350/387/249
f 294/331/268 291/328/266 356/393/249 295/332/249
f 357/394/305 281/318/306 283/320/307 358/395/308
f 359/396/309 280/317/310 281/318/306 357/394/305
f 360/397/311 277/314/312 280/317/310 359/396/309
f 361/398/313 274/311/314 277/314/312 360/397/311
f 362/399/315 275/312/316 274/311/314 361/398/313
f 363/400/317 364/401/318 275/312/316 362/399/315
f 364/401/318 363/400/317 365/402/319 366/403/320
f 345/382/301 367/404/321 366/403/320 365/402/319
f 368/405/322 369/406/323 367/404/321 345/382/301
f 370/407/324 371/408/325 369/406/323 368/405/322
f 356/393/326 371/408/325 370/407/324 372/409/327
f 373/410/328 295/332/329 356/393/326 372/409/327
f 374/411/330 292/329/331 295/332/329 373/410/328
f 375/412/332 297/334/333 292/329/331 374/411/330
f 376/413/334 298/335/335 297/334/333 375/412/332
f 377/414/336 301/338/337 298/335/335 376/413/334
f 378/415/338 287/324/339 301/338/337 377/414/336
f 378/415/338 379/416/340 284/321/341 287/324/339
f 329/366/299 342/379/342 332/369/343 319/356/289
f 327/364/297 341/378/344 342/379/342 329/366/299
f 325/362/295 338/375/345 341/378/344 327/364/297
f 323/360/293 335/372/346 338/375/345 325/362/295
f 322/359/292 336/373/347 335/372/346 323/360/293
f 346/383/302 355/392/348 336/373/347 322/359/292
f 355/392/348 380/417/349 352/389/350
f 352/389/350 380/417/349 351/388/351
f 381/418/352 382/419/353 351/388/351 380/417/349
f 383/420/354 354/391/355 382/419/353 381/418/352
f 354/391/355 383/420/354 353/390/356
f 347/384/303 384/421/357 353/390/356 383/420/354
f 321/358/291 276/313/358 384/421/357 347/384/303
f 320/357/290 273/310/359 276/313/358 321/358/291
f 324/361/294 278/315/360 273/310/359 320/357/290
f 326/363/296 279/316/361 278/315/360 324/361/294
f 328/365/298 282/319/362 279/316/361 326/363/296
f 318/355/288 270/307/363 282/319/362 328/365/298
f 318/355/288 317/354/287 271/308/364 270/307/363
f 385/422/365 316/353/286 331/368/366 386/423/367
f 387/424/368 388/425/369 389/426/370 390/427/371
f 391/428/372 392/429/373 393/430/374 394/431/375
f 395/432/376 396/433/377 397/434/378 398/435/379
f 399/436/380 400/437/381 396/433/377 395/432/376
f 401/438/382 402/439/383 400/437/381 399/436/380
f 403/440/384 404/441/385 402/439/383 401/438/382
f 390/427/371 389/426/370 404/441/385 403/440/384
f 391/428/372 348/385/386 257/294/387 392/429/373
f 396/433/377 334/371/388 337/374/389 397/434/378
f 400/437/381 339/376/390 334/371/388 396/433/377
f 402/439/383 340/377/391 339/376/390 400/437/381
f 404/441/385 343/380/392 340/377/391 402/439/383
f 389/426/370 333/370/393 343/380/392 404/441/385
f 389/426/370 388/425/369 330/367/394 333/370/393
f 405/442/395 406/443/396 407/444/397 387/424/368
f 403/440/384 269/306/398 252/289/399 390/427/371
f 401/438/382 267/304/400 269/306/398 403/440/384
f 399/436/380 265/302/401 267/304/400 401/438/382
f 395/432/376 261/298/402 265/302/401 399/436/380
f 398/435/379 262/299/403 261/298/402 395/432/376
f 262/299/403 398/435/379 393/430/374 256/293/404
f 408/445/405 409/446/406 406/443/407 410/447/407
f 316/353/286 385/422/365 411/448/408 317/354/287
f 330/367/300 412/449/409 386/423/410 331/368/300
f 413/450/395 358/395/308 283/320/307 414/451/411
f 317/354/287 411/448/408 415/452/412 271/308/364
f 316/353/286 319/356/289 332/369/343 331/368/366
f 416/453/413 417/454/414 388/425/369 407/444/397
f 388/425/369 417/454/414 412/449/415 330/367/394
f 387/424/368 390/427/371 252/289/399 405/442/395
f 272/309/261 271/308/260 415/452/416 418/455/405
f 272/309/261 414/451/249 283/320/249 270/307/249
f 412/449/415 417/454/414 416/453/413 409/446/417
f 415/452/412 411/448/408 385/422/365 386/423/367
f 409/446/406 408/445/405 419/456/418
f 418/455/405 415/452/416 420/457/419
f 421/458/420 420/457/419 419/456/418 422/459/420
f 423/460/421 424/461/422 425/462/423 426/463/424
f 427/464/425 428/465/425 429/466/426 430/467/426
f 431/468/427 432/469/427 433/470/428 434/471/428
f 429/466/429 432/469/427 431/468/427 430/467/429
f 426/463/430 434/471/428 433/470/428 435/472/430
f 423/460/421 426/463/424 435/472/431
f 436/473/432 437/474/433 438/475/433 439/476/432
f 438/475/433 437/474/433 440/477/434 441/478/434
f 428/465/201 285/479/201 284/480/201 429/466/201
f 302/481/201 433/470/201 432/469/201 303/482/201
f 379/483/201 432/469/201 429/466/201 284/480/201
f 442/484/201 424/461/201 255/485/201 254/486/201
f 414/487/201 435/472/201 433/470/201 413/488/201
f 423/460/435 272/489/435 418/490/436 436/473/436
f 435/472/201 414/487/201 272/489/201 423/460/201
f 438/475/204 419/491/204 408/492/204 439/476/204
f 436/473/436 418/490/436 420/493/205 437/474/205
f 441/478/204 422/494/204 419/491/204 438/475/204
f 440/477/437 421/495/437 422/494/437 441/478/437
f 437/474/205 420/493/205 421/495/205 440/477/205
f 420/457/419 415/452/416 386/423/410
f 409/446/406 419/456/418 412/449/409
f 420/457/419 386/423/410 412/449/409 419/456/418
f 431/468/201 207/223/201 443/496/201
f 426/463/201 425/462/201 208/224/201 434/471/201
f 434/471/201 208/224/201 207/223/201 431/468/201
f 302/481/201 413/488/201 433/470/201
f 379/483/201 303/482/201 432/469/201
f 304/341/274 303/340/273 379/416/340 378/415/338
f 302/339/272 305/342/275 358/395/308 413/450/395
f 307/344/277 306/343/276 374/411/330 373/410/328
f 309/346/279 308/345/278 362/399/315 361/398/313
f 306/343/276 310/347/280 375/412/332 374/411/330
f 311/348/281 309/346/279 361/398/313 360/397/311
f 310/347/280 312/349/282 376/413/334 375/412/332
f 313/350/283 311/348/281 360/397/311 359/396/309
f 312/349/282 314/351/284 377/414/336 376/413/334
f 315/352/285 313/350/283 359/396/309 357/394/305
f 314/351/284 304/341/274 378/415/338 377/414/336
f 305/342/275 315/352/285 357/394/305 358/395/308
f 308/345/278 365/402/319 363/400/317 362/399/315
f 370/407/324 307/344/277 373/410/328 372/409/327
f 424/461/422 423/460/421 444/497/438
f 410/498/204 255/485/204 424/461/204 444/497/204
f 252/289/249 255/292/249 405/442/249
f 425/462/423 424/461/422 442/484/439
f 445/499/440 446/500/441 258/501/253
f 447/502/442 448/503/443 288/504/264
f 254/486/201 449/505/201 442/484/201
f 245/275/242 246/278/243 286/323/263 285/322/262
f 246/278/243 251/288/248 300/337/271 286/323/263
f 251/288/248 250/285/247 299/336/270 300/337/271
f 249/284/246 450/506/444 291/328/266 294/331/268
f 247/279/244 248/282/245 293/330/267 296/333/269
f 248/282/245 249/284/246 294/331/268 293/330/267
f 250/285/247 247/279/244 296/333/269 299/336/270
f 254/291/251 253/290/250 451/507/445 449/508/446
f 452/509/447 445/499/440 258/501/253 257/510/252
f 218/511/217 219/512/218 446/500/441 445/499/440
f 453/513/448 263/300/256 259/296/254 454/514/449
f 260/297/255 263/300/256 453/513/448 455/515/450
f 264/301/257 260/297/255 455/515/450 456/516/451
f 266/303/258 264/301/257 456/516/451 457/517/452
f 268/305/259 266/303/258 457/517/452 458/518/453
f 253/290/250 268/305/259 458/518/453 451/507/445
f 448/503/443 459/519/454 289/520/265 288/504/264
f 289/520/265 459/519/454 460/521/455 348/522/304
f 460/521/455 452/509/447 257/510/252 348/522/304
f 443/496/456 461/523/456 428/465/425 427/464/425
f 461/523/201 245/524/201 285/479/201 428/465/201
f 430/467/201 431/468/201 443/496/201 427/464/201
f 349/386/457 348/385/386 391/428/372 394/431/375
f 364/401/249 384/421/249 276/313/249 275/312/249
f 366/403/249 384/421/249 364/401/249
f 380/417/349 355/392/348 346/383/302
f 262/299/249 256/293/249 259/296/254 263/300/256
f 356/393/249 291/328/266 290/327/249 371/408/249
f 290/327/249 367/404/249 369/406/249
f 344/381/249 350/387/249 382/419/249
f 290/327/249 344/381/249 367/404/249
f 350/387/249 349/386/249 337/374/249 336/373/249
f 350/387/249 351/388/249 382/419/249
f 344/381/249 382/419/249 354/391/249
f 290/327/249 369/406/249 371/408/249
f 397/434/378 394/431/375 393/430/374 398/435/379
f 337/374/389 349/386/457 394/431/375 397/434/378
f 348/385/304 350/387/249 344/381/249 289/326/265
f 288/325/264 291/328/266 450/506/444 447/525/442
f 446/526/441 219/527/218 229/528/229 454/514/449
f 256/293/404 393/430/374 392/429/373 257/294/387
f 446/526/441 454/514/449 259/296/254 258/295/253
f 416/453/413 407/444/397 406/443/396 409/446/417
f 255/292/249 410/447/407 406/443/407 405/442/249
f 410/498/204 444/497/204 439/476/204 408/492/204
f 407/444/397 388/425/369 387/424/368
f 439/476/432 444/497/438 423/460/421 436/473/432
f 346/383/302 347/384/303 383/420/354 380/417/349
f 380/417/349 383/420/354 381/418/352
f 450/506/444 249/284/246 10/283/10 230/529/230
f 449/508/446 451/507/445 232/530/231 231/531/204
f 451/507/445 458/518/453 233/532/232 232/530/231
f 453/513/448 454/514/449 229/528/229 234/533/233
f 455/515/450 453/513/448 234/533/233 235/534/234
f 457/517/452 456/516/451 237/535/236 236/536/235
f 456/516/451 455/515/450 235/534/234 237/535/236
f 458/518/453 457/517/452 236/536/235 233/532/232
f 459/519/454 448/503/443 239/537/238 238/538/237
f 4/267/201 245/524/201 461/523/201 240/268/201
f 442/484/201 449/505/201 231/270/201 241/269/201
f 448/503/443 447/502/442 242/539/239 239/537/238
f 447/525/442 450/506/444 230/529/230 242/540/239
f 250/285/247 251/288/248 14/287/14 12/286/12
f 445/499/440 452/509/447 243/541/237 218/511/217
f 460/521/455 459/519/454 238/538/237 244/542/237
f 452/509/447 460/521/455 244/542/237 243/541/237
f 461/523/456 443/496/456 207/223/240 240/268/240
f 208/224/241 425/462/241 442/484/241 241/269/241
f 98/98/15 119/119/15 99/99/15
f 72/72/45 109/109/68 131/131/88
f 71/71/44 109/109/68 72/72/45
f 72/72/45 131/131/88 133/133/90
f 107/107/15 129/129/15 147/147/15 117/117/15
f 367/404/249 344/381/249 366/403/249
f 308/345/278 345/382/301 365/402/319
f 345/382/301 307/344/277 368/405/322
f 368/405/322 307/344/277 370/407/324
f 384/421/249 366/403/249 344/381/249 353/390/249
f 350/387/249 336/373/249 355/392/249
